<svg width="1440" height="1024" viewBox="0 0 1440 1024" fill="none" xmlns="http://www.w3.org/2000/svg">
  <g clippath="url(#clip0_25_16)">
<rect width="1440" height="1024" fill="#47B5FF"/>
<rect width="1440" height="1024" fill="#47B5FF"/>
<mask id="mask0_25_16" style="masktype:luminance" maskUnits="userSpaceOnUse" x="333" y="324" width="774" height="376">
<path d="M1106.02 324.01H333V700H1106.02V324.01Z" fill="white"/>
</mask>
<g mask="url(#mask0_25_16)">
<path d="M1019.08 537.554C1019.08 537.554 1014.38 526.271 1004.14 508.939C984.156 475.161 959.166 444.61 930.02 418.331C887.755 380.08 836.766 352.763 781.507 338.768C703.8 319.294 622.547 327.3 546.056 349.492C533.782 353.054 520.744 357.823 507.939 360.802C494.921 363.833 481.408 362.412 468.574 365.879C458.422 368.62 449.857 375.465 441.09 381.428C422.125 394.328 403.949 408.855 387.778 425.811C370.553 443.87 355.636 465 345.74 488.943C341.662 498.81 335.005 510.991 337.132 522.184C342.377 549.763 380.632 558.913 401.072 565.396C431.244 574.965 462.607 579.886 493.789 583.272C524.497 586.603 555.354 588.188 586.198 588.818C586.198 588.818 734.487 593.781 854.315 542.518C854.315 542.518 936.699 524.327 980.137 552.442C1016.29 616.642 1055.14 663.905 1097.31 690.189C1089.03 672.542 1079.86 655.189 1074.28 636.197C1068.79 617.515 1072.84 597.519 1068.51 578.632C1066.19 568.505 1053.15 560.498 1060.88 549.248C1064.8 543.533 1074.59 529.289 1081.99 529.289C1081.99 529.289 1059.59 508.943 1004.14 508.943" stroke="#E5F4FF" strokewidth="3" strokelinecap="round"/>
<path d="M629.637 540.31C651.231 561.363 671.866 601.993 652.923 632.739C647.592 641.39 637.244 635.351 631.023 631.375C603.559 613.827 584.244 579.167 568.223 550.232" stroke="#E5F4FF" strokewidth="3" strokelinecap="round"/>
<path d="M342.481 531.952C340.133 543.064 364.112 473.012 399.516 488.202C422.875 498.222 462.416 557.946 502.374 525.868" stroke="#E5F4FF" strokewidth="3" strokelinecap="round"/>
<path d="M542.242 479.049C545.848 479.049 549.088 479.872 551.409 481.177C553.746 482.491 555.054 484.229 555.054 486.035C555.054 487.842 553.746 489.579 551.41 490.893C549.089 492.198 545.849 493.021 542.242 493.021C538.636 493.02 535.396 492.198 533.076 490.893C530.74 489.579 529.434 487.842 529.434 486.035C529.434 484.229 530.741 482.491 533.077 481.177C535.398 479.872 538.637 479.049 542.242 479.049Z" fill="#221E1F" stroke="#E5F4FF"/>
</g>
<path d="M558.373 736.29C551.473 728.31 544.123 720.15 536.323 711.81C528.523 703.41 520.723 695.07 512.923 686.79C512.863 688.47 512.803 690.72 512.743 693.54C512.683 696.36 512.653 700.2 512.653 705.06C512.653 706.32 512.653 707.88 512.653 709.74C512.713 711.6 512.743 713.55 512.743 715.59C512.803 717.63 512.863 719.7 512.923 721.8C512.983 723.9 513.043 725.85 513.103 727.65C513.163 729.45 513.223 731.04 513.283 732.42C513.343 733.74 513.403 734.64 513.463 735.12C512.503 735 511.453 734.94 510.313 734.94C509.113 734.94 508.003 735 506.983 735.12C507.103 734.52 507.223 733.41 507.343 731.79C507.523 730.17 507.673 728.25 507.793 726.03C507.913 723.75 508.033 721.29 508.153 718.65C508.333 716.01 508.453 713.37 508.513 710.73C508.633 708.09 508.723 705.51 508.783 702.99C508.843 700.47 508.873 698.22 508.873 696.24C508.873 690.48 508.843 685.53 508.783 681.39C508.783 677.25 508.723 674.16 508.603 672.12H510.043C513.703 676.08 517.603 680.34 521.743 684.9C525.943 689.4 530.083 693.87 534.163 698.31C538.303 702.69 542.203 706.86 545.863 710.82C549.583 714.72 552.823 718.05 555.583 720.81V708.57C555.583 702.27 555.523 696.15 555.403 690.21C555.343 684.21 555.163 678.57 554.863 673.29C556.063 673.59 557.083 673.74 557.923 673.74C558.643 673.74 559.603 673.59 560.803 673.29C560.683 674.61 560.533 676.59 560.353 679.23C560.233 681.87 560.083 684.69 559.903 687.69C559.783 690.69 559.663 693.63 559.543 696.51C559.423 699.39 559.363 701.7 559.363 703.44C559.363 704.94 559.363 706.74 559.363 708.84C559.363 710.88 559.363 713.01 559.363 715.23C559.423 717.45 559.453 719.7 559.453 721.98C559.513 724.2 559.543 726.3 559.543 728.28C559.603 730.2 559.633 731.88 559.633 733.32C559.633 734.64 559.633 735.63 559.633 736.29H558.373ZM598.902 712.71C597.882 713.07 596.682 713.37 595.302 713.61C593.982 713.85 592.632 714.12 591.252 714.42C589.872 714.66 588.492 714.99 587.112 715.41C585.792 715.83 584.592 716.4 583.512 717.12C582.492 717.84 581.652 718.74 580.992 719.82C580.392 720.9 580.092 722.28 580.092 723.96C580.092 726.78 580.902 728.91 582.522 730.35C584.142 731.79 585.942 732.51 587.922 732.51C590.202 732.51 592.272 731.88 594.132 730.62C596.052 729.36 597.522 727.89 598.542 726.21L598.902 712.71ZM576.672 696.69C579.372 694.65 581.862 693.27 584.142 692.55C586.422 691.83 588.762 691.47 591.162 691.47C593.322 691.47 595.302 691.8 597.102 692.46C598.902 693.06 600.432 693.96 601.692 695.16C602.952 696.3 603.942 697.71 604.662 699.39C605.382 701.01 605.742 702.81 605.742 704.79C605.742 708.21 605.682 711.63 605.562 715.05C605.442 718.41 605.382 721.98 605.382 725.76C605.382 726.48 605.382 727.26 605.382 728.1C605.442 728.88 605.592 729.6 605.832 730.26C606.072 730.86 606.402 731.37 606.822 731.79C607.302 732.21 607.992 732.42 608.892 732.42C609.192 732.42 609.492 732.42 609.792 732.42C610.152 732.36 610.482 732.24 610.782 732.06V734.04C610.122 734.34 609.282 734.58 608.262 734.76C607.302 734.94 606.222 735.03 605.022 735.03C603.102 735.03 601.632 734.55 600.612 733.59C599.592 732.57 598.992 731.28 598.812 729.72C596.652 731.88 594.522 733.47 592.422 734.49C590.322 735.51 587.742 736.02 584.682 736.02C583.182 736.02 581.712 735.81 580.272 735.39C578.832 734.97 577.542 734.28 576.402 733.32C575.322 732.36 574.422 731.22 573.702 729.9C573.042 728.52 572.712 726.96 572.712 725.22C572.712 721.62 573.822 718.83 576.042 716.85C578.322 714.87 581.442 713.55 585.402 712.89C588.642 712.35 591.162 711.9 592.962 711.54C594.822 711.12 596.172 710.7 597.012 710.28C597.912 709.86 598.452 709.38 598.632 708.84C598.812 708.24 598.902 707.49 598.902 706.59C598.902 705.09 598.722 703.65 598.362 702.27C598.002 700.89 597.432 699.69 596.652 698.67C595.872 697.65 594.852 696.84 593.592 696.24C592.332 695.58 590.802 695.25 589.002 695.25C586.602 695.25 584.352 695.79 582.252 696.87C580.212 697.95 578.682 699.45 577.662 701.37H576.672V696.69ZM658.122 733.14C658.122 735.06 658.122 737.19 658.122 739.53C658.182 741.93 658.242 744.3 658.302 746.64C658.362 748.98 658.422 751.2 658.482 753.3C658.602 755.46 658.722 757.29 658.842 758.79C657.162 758.49 655.812 758.34 654.792 758.34C653.772 758.34 652.422 758.49 650.742 758.79C650.862 757.29 650.952 755.46 651.012 753.3C651.132 751.2 651.222 748.98 651.282 746.64C651.342 744.3 651.372 741.93 651.372 739.53C651.432 737.19 651.462 735.06 651.462 733.14V726.39H651.282C649.542 729.81 647.382 732.27 644.802 733.77C642.282 735.27 639.552 736.02 636.612 736.02C634.392 736.02 632.142 735.66 629.862 734.94C627.642 734.28 625.632 733.11 623.832 731.43C622.032 729.69 620.562 727.41 619.422 724.59C618.282 721.77 617.712 718.29 617.712 714.15C617.712 710.19 618.282 706.8 619.422 703.98C620.562 701.1 622.032 698.76 623.832 696.96C625.632 695.1 627.642 693.72 629.862 692.82C632.142 691.92 634.392 691.47 636.612 691.47C640.692 691.47 643.902 692.4 646.242 694.26C648.582 696.12 650.262 698.43 651.282 701.19H651.462C651.462 699.75 651.402 698.31 651.282 696.87C651.162 695.43 650.982 693.93 650.742 692.37C652.422 692.67 653.772 692.82 654.792 692.82C655.812 692.82 657.162 692.67 658.842 692.37C658.722 693.93 658.602 695.79 658.482 697.95C658.422 700.11 658.362 702.39 658.302 704.79C658.242 707.13 658.182 709.5 658.122 711.9C658.122 714.3 658.122 716.52 658.122 718.56V733.14ZM651.462 712.98C651.462 710.7 651.222 708.51 650.742 706.41C650.262 704.25 649.482 702.36 648.402 700.74C647.382 699.06 646.062 697.74 644.442 696.78C642.822 695.76 640.842 695.25 638.502 695.25C637.062 695.25 635.562 695.55 634.002 696.15C632.502 696.69 631.122 697.71 629.862 699.21C628.602 700.65 627.582 702.63 626.802 705.15C626.022 707.67 625.632 710.91 625.632 714.87C625.632 717.45 625.872 719.85 626.352 722.07C626.892 724.23 627.642 726.12 628.602 727.74C629.622 729.36 630.882 730.65 632.382 731.61C633.942 732.51 635.712 732.96 637.692 732.96C639.972 732.96 641.952 732.39 643.632 731.25C645.372 730.11 646.812 728.61 647.952 726.75C649.152 724.83 650.022 722.67 650.562 720.27C651.162 717.87 651.462 715.44 651.462 712.98ZM670.781 721.53C670.781 718.35 670.811 715.65 670.871 713.43C670.991 711.15 671.051 708.9 671.051 706.68C671.051 704.58 671.021 702.3 670.961 699.84C670.961 697.38 670.931 694.89 670.871 692.37C672.371 692.67 673.631 692.82 674.651 692.82C675.611 692.82 676.841 692.67 678.341 692.37C678.041 695.97 677.801 699.93 677.621 704.25C677.501 708.51 677.441 712.89 677.441 717.39C677.441 720.51 677.711 722.91 678.251 724.59C678.791 726.21 679.451 727.44 680.231 728.28C681.071 729.24 682.121 730.05 683.381 730.71C684.701 731.31 686.231 731.61 687.971 731.61C690.491 731.61 692.591 731.07 694.271 729.99C695.951 728.85 697.181 727.47 697.961 725.85C698.381 724.83 698.711 723.96 698.951 723.24C699.191 722.52 699.371 721.56 699.491 720.36C699.671 719.16 699.761 717.54 699.761 715.5C699.821 713.46 699.851 710.67 699.851 707.13V699.57C699.851 698.25 699.821 696.99 699.761 695.79C699.761 694.59 699.731 693.45 699.671 692.37C700.331 692.49 700.961 692.61 701.561 692.73C702.161 692.79 702.791 692.82 703.451 692.82C704.111 692.82 704.741 692.79 705.341 692.73C705.941 692.61 706.541 692.49 707.141 692.37C706.841 697.05 706.661 701.58 706.601 705.96C706.541 710.28 706.511 714.87 706.511 719.73C706.511 722.43 706.541 725.07 706.601 727.65C706.661 730.23 706.751 732.72 706.871 735.12C705.671 735 704.501 734.94 703.361 734.94C702.221 734.94 701.051 735 699.851 735.12C699.911 734.58 699.941 734.01 699.941 733.41C700.001 732.81 700.031 732.18 700.031 731.52V727.65H699.851C698.291 730.53 696.281 732.66 693.821 734.04C691.361 735.36 688.691 736.02 685.811 736.02C681.131 736.02 677.441 734.79 674.741 732.33C672.101 729.81 670.781 726.21 670.781 721.53ZM743.921 712.71C742.901 713.07 741.701 713.37 740.321 713.61C739.001 713.85 737.651 714.12 736.271 714.42C734.891 714.66 733.511 714.99 732.131 715.41C730.811 715.83 729.611 716.4 728.531 717.12C727.511 717.84 726.671 718.74 726.011 719.82C725.411 720.9 725.111 722.28 725.111 723.96C725.111 726.78 725.921 728.91 727.541 730.35C729.161 731.79 730.961 732.51 732.941 732.51C735.221 732.51 737.291 731.88 739.151 730.62C741.071 729.36 742.541 727.89 743.561 726.21L743.921 712.71ZM721.691 696.69C724.391 694.65 726.881 693.27 729.161 692.55C731.441 691.83 733.781 691.47 736.181 691.47C738.341 691.47 740.321 691.8 742.121 692.46C743.921 693.06 745.451 693.96 746.711 695.16C747.971 696.3 748.961 697.71 749.681 699.39C750.401 701.01 750.761 702.81 750.761 704.79C750.761 708.21 750.701 711.63 750.581 715.05C750.461 718.41 750.401 721.98 750.401 725.76C750.401 726.48 750.401 727.26 750.401 728.1C750.461 728.88 750.611 729.6 750.851 730.26C751.091 730.86 751.421 731.37 751.841 731.79C752.321 732.21 753.011 732.42 753.911 732.42C754.211 732.42 754.511 732.42 754.811 732.42C755.171 732.36 755.501 732.24 755.801 732.06V734.04C755.141 734.34 754.301 734.58 753.281 734.76C752.321 734.94 751.241 735.03 750.041 735.03C748.121 735.03 746.651 734.55 745.631 733.59C744.611 732.57 744.011 731.28 743.831 729.72C741.671 731.88 739.541 733.47 737.441 734.49C735.341 735.51 732.761 736.02 729.701 736.02C728.201 736.02 726.731 735.81 725.291 735.39C723.851 734.97 722.561 734.28 721.421 733.32C720.341 732.36 719.441 731.22 718.721 729.9C718.061 728.52 717.731 726.96 717.731 725.22C717.731 721.62 718.841 718.83 721.061 716.85C723.341 714.87 726.461 713.55 730.421 712.89C733.661 712.35 736.181 711.9 737.981 711.54C739.841 711.12 741.191 710.7 742.031 710.28C742.931 709.86 743.471 709.38 743.651 708.84C743.831 708.24 743.921 707.49 743.921 706.59C743.921 705.09 743.741 703.65 743.381 702.27C743.021 700.89 742.451 699.69 741.671 698.67C740.891 697.65 739.871 696.84 738.611 696.24C737.351 695.58 735.821 695.25 734.021 695.25C731.621 695.25 729.371 695.79 727.271 696.87C725.231 697.95 723.701 699.45 722.681 701.37H721.691V696.69ZM786.401 699.75C786.101 699.39 785.501 699.06 784.601 698.76C783.761 698.46 782.891 698.31 781.991 698.31C780.551 698.31 779.261 698.64 778.121 699.3C776.981 699.96 776.021 700.86 775.241 702C774.461 703.08 773.861 704.4 773.441 705.96C773.021 707.46 772.811 709.08 772.811 710.82V720.72C772.811 724.74 772.811 727.83 772.811 729.99C772.871 732.09 772.991 733.8 773.171 735.12C771.971 735 770.771 734.94 769.571 734.94C768.251 734.94 766.991 735 765.791 735.12C765.971 733.08 766.061 730.32 766.061 726.84C766.121 723.3 766.151 718.98 766.151 713.88V711C766.151 708.66 766.121 705.96 766.061 702.9C766.061 699.84 765.971 696.33 765.791 692.37C766.451 692.49 767.081 692.61 767.681 692.73C768.281 692.79 768.911 692.82 769.571 692.82C770.111 692.82 770.681 692.79 771.281 692.73C771.881 692.61 772.511 692.49 773.171 692.37C772.931 694.53 772.781 696.24 772.721 697.5C772.721 698.76 772.721 699.96 772.721 701.1L772.901 701.19C776.441 694.71 780.401 691.47 784.781 691.47C785.321 691.47 785.771 691.5 786.131 691.56C786.551 691.62 787.061 691.77 787.661 692.01C787.361 692.73 787.181 693.84 787.121 695.34C787.061 696.78 787.031 698.1 787.031 699.3L786.401 699.75ZM796.842 676.71C796.842 675.45 797.292 674.37 798.192 673.47C799.092 672.57 800.172 672.12 801.432 672.12C802.692 672.12 803.772 672.57 804.672 673.47C805.572 674.37 806.022 675.45 806.022 676.71C806.022 677.97 805.572 679.05 804.672 679.95C803.772 680.85 802.692 681.3 801.432 681.3C800.172 681.3 799.092 680.85 798.192 679.95C797.292 679.05 796.842 677.97 796.842 676.71ZM798.102 709.2C798.102 706.5 798.042 703.68 797.922 700.74C797.862 697.74 797.682 694.95 797.382 692.37C799.062 692.67 800.412 692.82 801.432 692.82C802.452 692.82 803.802 692.67 805.482 692.37C805.182 694.95 804.972 697.74 804.852 700.74C804.792 703.68 804.762 706.5 804.762 709.2V718.56C804.762 721.26 804.792 724.11 804.852 727.11C804.972 730.05 805.182 732.72 805.482 735.12C804.102 735 802.752 734.94 801.432 734.94C800.112 734.94 798.762 735 797.382 735.12C797.682 732.72 797.862 730.05 797.922 727.11C798.042 724.11 798.102 721.26 798.102 718.56V709.2ZM820.811 721.53C820.811 718.35 820.841 715.65 820.901 713.43C821.021 711.15 821.081 708.9 821.081 706.68C821.081 704.58 821.051 702.3 820.991 699.84C820.991 697.38 820.961 694.89 820.901 692.37C822.401 692.67 823.661 692.82 824.681 692.82C825.641 692.82 826.871 692.67 828.371 692.37C828.071 695.97 827.831 699.93 827.651 704.25C827.531 708.51 827.471 712.89 827.471 717.39C827.471 720.51 827.741 722.91 828.281 724.59C828.821 726.21 829.481 727.44 830.261 728.28C831.101 729.24 832.151 730.05 833.411 730.71C834.731 731.31 836.261 731.61 838.001 731.61C840.521 731.61 842.621 731.07 844.301 729.99C845.981 728.85 847.211 727.47 847.991 725.85C848.411 724.83 848.741 723.96 848.981 723.24C849.221 722.52 849.401 721.56 849.521 720.36C849.701 719.16 849.791 717.54 849.791 715.5C849.851 713.46 849.881 710.67 849.881 707.13V699.57C849.881 698.25 849.851 696.99 849.791 695.79C849.791 694.59 849.761 693.45 849.701 692.37C850.361 692.49 850.991 692.61 851.591 692.73C852.191 692.79 852.821 692.82 853.481 692.82C854.141 692.82 854.771 692.79 855.371 692.73C855.971 692.61 856.571 692.49 857.171 692.37C856.871 697.05 856.691 701.58 856.631 705.96C856.571 710.28 856.541 714.87 856.541 719.73C856.541 722.43 856.571 725.07 856.631 727.65C856.691 730.23 856.781 732.72 856.901 735.12C855.701 735 854.531 734.94 853.391 734.94C852.251 734.94 851.081 735 849.881 735.12C849.941 734.58 849.971 734.01 849.971 733.41C850.031 732.81 850.061 732.18 850.061 731.52V727.65H849.881C848.321 730.53 846.311 732.66 843.851 734.04C841.391 735.36 838.721 736.02 835.841 736.02C831.161 736.02 827.471 734.79 824.771 732.33C822.131 729.81 820.811 726.21 820.811 721.53ZM871 709.2C871 706.5 870.94 703.68 870.82 700.74C870.76 697.74 870.58 694.95 870.28 692.37C871.96 692.67 873.31 692.82 874.33 692.82C874.81 692.82 875.32 692.79 875.86 692.73C876.46 692.61 877.15 692.49 877.93 692.37C877.75 694.77 877.66 697.17 877.66 699.57H877.84C881.02 694.17 885.49 691.47 891.25 691.47C892.75 691.47 894.22 691.71 895.66 692.19C897.1 692.61 898.39 693.21 899.53 693.99C900.73 694.77 901.75 695.73 902.59 696.87C903.43 697.95 904 699.12 904.3 700.38H904.48C905.92 697.5 907.87 695.31 910.33 693.81C912.85 692.25 915.73 691.47 918.97 691.47C920.95 691.47 922.78 691.74 924.46 692.28C926.14 692.82 927.58 693.66 928.78 694.8C930.04 695.94 931 697.41 931.66 699.21C932.38 701.01 932.74 703.17 932.74 705.69C932.74 706.71 932.71 707.82 932.65 709.02C932.59 710.22 932.53 711.63 932.47 713.25C932.41 714.81 932.35 716.61 932.29 718.65C932.23 720.63 932.2 722.94 932.2 725.58C932.2 727.2 932.2 728.76 932.2 730.26C932.26 731.76 932.35 733.38 932.47 735.12C931.81 735 931.15 734.94 930.49 734.94C929.83 734.94 929.2 734.94 928.6 734.94C927.94 734.94 927.28 734.94 926.62 734.94C925.96 734.94 925.3 735 924.64 735.12C924.82 733.62 925 730.59 925.18 726.03C925.42 721.47 925.54 715.11 925.54 706.95C925.54 705.45 925.36 704.04 925 702.72C924.7 701.4 924.19 700.26 923.47 699.3C922.75 698.34 921.79 697.59 920.59 697.05C919.39 696.45 917.89 696.15 916.09 696.15C913.93 696.15 912.1 696.57 910.6 697.41C909.1 698.25 907.93 699.24 907.09 700.38C906.61 701.04 906.22 701.7 905.92 702.36C905.68 703.02 905.47 704.04 905.29 705.42C905.17 706.74 905.08 708.63 905.02 711.09C904.96 713.49 904.93 716.82 904.93 721.08C904.93 723.66 904.96 726.03 905.02 728.19C905.14 730.29 905.26 732.6 905.38 735.12C904 735 902.68 734.94 901.42 734.94C900.16 734.94 898.84 735 897.46 735.12C897.76 731.82 897.97 728.46 898.09 725.04C898.21 721.62 898.27 718.26 898.27 714.96C898.27 712.14 898.24 709.95 898.18 708.39C898.18 706.77 898.12 705.51 898 704.61C897.88 703.65 897.7 702.87 897.46 702.27C897.28 701.67 897.01 701.01 896.65 700.29C895.99 699.15 894.94 698.19 893.5 697.41C892.12 696.57 890.68 696.15 889.18 696.15C885.22 696.15 882.31 697.44 880.45 700.02C878.59 702.6 877.66 706.23 877.66 710.91V718.56C877.66 721.26 877.69 724.11 877.75 727.11C877.87 730.05 878.08 732.72 878.38 735.12C877 735 875.65 734.94 874.33 734.94C873.01 734.94 871.66 735 870.28 735.12C870.58 732.72 870.76 730.05 870.82 727.11C870.94 724.11 871 721.26 871 718.56V709.2Z" fill="#E5F4FF"/>
</g>
<defs>
<clipPath id="clip0_25_16">
<rect width="1440" height="1024" fill="white"/>
</clipPath>
</defs>
  </svg>