<svg width="1440" height="1024" viewBox="0 0 1440 1024" fill="none" xmlns="http://www.w3.org/2000/svg">
  <g clippath="url(#clip0_261_690)">
<rect width="1440" height="1024" fill="#9DD6FD"/>
<rect width="1440" height="1024" fill="#9DD6FD"/>
<mask id="mask0_261_690" style="masktype:luminance" maskUnits="userSpaceOnUse" x="23" y="15" width="260" height="119">
<path d="M283 15H23V133.354H283V15Z" fill="white"/>
</mask>
<g mask="url(#mask0_261_690)">
<path d="M253.754 82.2191C253.754 82.2191 252.173 78.6674 248.728 73.2116C242.008 62.579 233.603 52.9624 223.8 44.69C209.584 32.6496 192.434 24.0508 173.848 19.6452C147.712 13.5152 120.383 16.0353 94.6559 23.0209C90.5276 24.1422 86.1423 25.6433 81.8355 26.5811C77.457 27.5352 72.912 27.0879 68.5953 28.1792C65.1808 29.042 62.3 31.1967 59.3513 33.0737C52.9725 37.1344 46.8592 41.7072 41.4201 47.0446C35.6266 52.7292 30.6094 59.3805 27.2809 66.9173C25.9093 70.0232 23.6703 73.8576 24.3857 77.3809C26.1498 86.0622 39.0166 88.9424 45.8915 90.9832C56.0396 93.9953 66.5884 95.5443 77.0762 96.6102C87.4046 97.6587 97.7832 98.1576 108.157 98.3559C108.157 98.3559 158.033 99.9182 198.337 83.7816C198.337 83.7816 226.046 78.0555 240.656 86.9055C252.816 107.114 265.882 121.992 280.066 130.266C277.283 124.711 274.197 119.248 272.319 113.27C270.473 107.389 271.835 101.095 270.38 95.1496C269.6 91.9618 265.215 89.4414 267.813 85.9001C269.132 84.1011 272.424 79.6174 274.914 79.6174C274.914 79.6174 267.38 73.2129 248.728 73.2129" stroke="#E2F4F9" strokewidth="3" strokelinecap="round"/>
<path d="M122.769 83.0859C130.032 89.713 136.973 102.503 130.602 112.181C128.809 114.904 125.328 113.003 123.236 111.751C113.998 106.228 107.502 95.3173 102.113 86.2092" stroke="#E2F4F9" strokewidth="3" strokelinecap="round"/>
<path d="M26.1861 80.4565C25.3964 83.9544 33.4615 61.9034 45.3694 66.6849C53.2261 69.839 66.5254 88.6389 79.965 78.5414" stroke="#E2F4F9" strokewidth="3" strokelinecap="round"/>
<path d="M97.8519 66.0039C97.8519 67.3055 95.8476 68.3603 93.3748 68.3603C90.902 68.3603 88.8984 67.3055 88.8984 66.0039C88.8984 64.7023 90.9027 63.6475 93.3748 63.6475C95.8469 63.6475 97.8519 64.7023 97.8519 66.0039Z" fill="#FFFDFE"/>
</g>
<path d="M103.864 144.249C102.024 142.121 100.064 139.945 97.984 137.721C95.904 135.481 93.824 133.257 91.744 131.049C91.728 131.497 91.712 132.097 91.696 132.849C91.68 133.601 91.672 134.625 91.672 135.921C91.672 136.257 91.672 136.673 91.672 137.169C91.688 137.665 91.696 138.185 91.696 138.729C91.712 139.273 91.728 139.825 91.744 140.385C91.76 140.945 91.776 141.465 91.792 141.945C91.808 142.425 91.824 142.849 91.84 143.217C91.856 143.569 91.872 143.809 91.888 143.937C91.632 143.905 91.352 143.889 91.048 143.889C90.728 143.889 90.432 143.905 90.16 143.937C90.192 143.777 90.224 143.481 90.256 143.049C90.304 142.617 90.344 142.105 90.376 141.513C90.408 140.905 90.44 140.249 90.472 139.545C90.52 138.841 90.552 138.137 90.568 137.433C90.6 136.729 90.624 136.041 90.64 135.369C90.656 134.697 90.664 134.097 90.664 133.569C90.664 132.033 90.656 130.713 90.64 129.609C90.64 128.505 90.624 127.681 90.592 127.137H90.976C91.952 128.193 92.992 129.329 94.096 130.545C95.216 131.745 96.32 132.937 97.408 134.121C98.512 135.289 99.552 136.401 100.528 137.457C101.52 138.497 102.384 139.385 103.12 140.121V136.857C103.12 135.177 103.104 133.545 103.072 131.961C103.056 130.361 103.008 128.857 102.928 127.449C103.248 127.529 103.52 127.569 103.744 127.569C103.936 127.569 104.192 127.529 104.512 127.449C104.48 127.801 104.44 128.329 104.392 129.033C104.36 129.737 104.32 130.489 104.272 131.289C104.24 132.089 104.208 132.873 104.176 133.641C104.144 134.409 104.128 135.025 104.128 135.489C104.128 135.889 104.128 136.369 104.128 136.929C104.128 137.473 104.128 138.041 104.128 138.633C104.144 139.225 104.152 139.825 104.152 140.433C104.168 141.025 104.176 141.585 104.176 142.113C104.192 142.625 104.2 143.073 104.2 143.457C104.2 143.809 104.2 144.073 104.2 144.249H103.864ZM114.672 137.961C114.4 138.057 114.08 138.137 113.712 138.201C113.36 138.265 113 138.337 112.632 138.417C112.264 138.481 111.896 138.569 111.528 138.681C111.176 138.793 110.856 138.945 110.568 139.137C110.296 139.329 110.072 139.569 109.896 139.857C109.736 140.145 109.656 140.513 109.656 140.961C109.656 141.713 109.872 142.281 110.304 142.665C110.736 143.049 111.216 143.241 111.744 143.241C112.352 143.241 112.904 143.073 113.4 142.737C113.912 142.401 114.304 142.009 114.576 141.561L114.672 137.961ZM108.744 133.689C109.464 133.145 110.128 132.777 110.736 132.585C111.344 132.393 111.968 132.297 112.608 132.297C113.184 132.297 113.712 132.385 114.192 132.561C114.672 132.721 115.08 132.961 115.416 133.281C115.752 133.585 116.016 133.961 116.208 134.409C116.4 134.841 116.496 135.321 116.496 135.849C116.496 136.761 116.48 137.673 116.448 138.585C116.416 139.481 116.4 140.433 116.4 141.441C116.4 141.633 116.4 141.841 116.4 142.065C116.416 142.273 116.456 142.465 116.52 142.641C116.584 142.801 116.672 142.937 116.784 143.049C116.912 143.161 117.096 143.217 117.336 143.217C117.416 143.217 117.496 143.217 117.576 143.217C117.672 143.201 117.76 143.169 117.84 143.121V143.649C117.664 143.729 117.44 143.793 117.168 143.841C116.912 143.889 116.624 143.913 116.304 143.913C115.792 143.913 115.4 143.785 115.128 143.529C114.856 143.257 114.696 142.913 114.648 142.497C114.072 143.073 113.504 143.497 112.944 143.769C112.384 144.041 111.696 144.177 110.88 144.177C110.48 144.177 110.088 144.121 109.704 144.009C109.32 143.897 108.976 143.713 108.672 143.457C108.384 143.201 108.144 142.897 107.952 142.545C107.776 142.177 107.688 141.761 107.688 141.297C107.688 140.337 107.984 139.593 108.576 139.065C109.184 138.537 110.016 138.185 111.072 138.009C111.936 137.865 112.608 137.745 113.088 137.649C113.584 137.537 113.944 137.425 114.168 137.313C114.408 137.201 114.552 137.073 114.6 136.929C114.648 136.769 114.672 136.569 114.672 136.329C114.672 135.929 114.624 135.545 114.528 135.177C114.432 134.809 114.28 134.489 114.072 134.217C113.864 133.945 113.592 133.729 113.256 133.569C112.92 133.393 112.512 133.305 112.032 133.305C111.392 133.305 110.792 133.449 110.232 133.737C109.688 134.025 109.28 134.425 109.008 134.937H108.744V133.689ZM130.464 143.409C130.464 143.921 130.464 144.489 130.464 145.113C130.48 145.753 130.496 146.385 130.512 147.009C130.528 147.633 130.544 148.225 130.56 148.785C130.592 149.361 130.624 149.849 130.656 150.249C130.208 150.169 129.848 150.129 129.576 150.129C129.304 150.129 128.944 150.169 128.496 150.249C128.528 149.849 128.552 149.361 128.568 148.785C128.6 148.225 128.624 147.633 128.64 147.009C128.656 146.385 128.664 145.753 128.664 145.113C128.68 144.489 128.688 143.921 128.688 143.409V141.609H128.64C128.176 142.521 127.6 143.177 126.912 143.577C126.24 143.977 125.512 144.177 124.728 144.177C124.136 144.177 123.536 144.081 122.928 143.889C122.336 143.713 121.8 143.401 121.32 142.953C120.84 142.489 120.448 141.881 120.144 141.129C119.84 140.377 119.688 139.449 119.688 138.345C119.688 137.289 119.84 136.385 120.144 135.633C120.448 134.865 120.84 134.241 121.32 133.761C121.8 133.265 122.336 132.897 122.928 132.657C123.536 132.417 124.136 132.297 124.728 132.297C125.816 132.297 126.672 132.545 127.296 133.041C127.92 133.537 128.368 134.153 128.64 134.889H128.688C128.688 134.505 128.672 134.121 128.64 133.737C128.608 133.353 128.56 132.953 128.496 132.537C128.944 132.617 129.304 132.657 129.576 132.657C129.848 132.657 130.208 132.617 130.656 132.537C130.624 132.953 130.592 133.449 130.56 134.025C130.544 134.601 130.528 135.209 130.512 135.849C130.496 136.473 130.48 137.105 130.464 137.745C130.464 138.385 130.464 138.977 130.464 139.521V143.409ZM128.688 138.033C128.688 137.425 128.624 136.841 128.496 136.281C128.368 135.705 128.16 135.201 127.872 134.769C127.6 134.321 127.248 133.969 126.816 133.713C126.384 133.441 125.856 133.305 125.232 133.305C124.848 133.305 124.448 133.385 124.032 133.545C123.632 133.689 123.264 133.961 122.928 134.361C122.592 134.745 122.32 135.273 122.112 135.945C121.904 136.617 121.8 137.481 121.8 138.537C121.8 139.225 121.864 139.865 121.992 140.457C122.136 141.033 122.336 141.537 122.592 141.969C122.864 142.401 123.2 142.745 123.6 143.001C124.016 143.241 124.488 143.361 125.016 143.361C125.624 143.361 126.152 143.209 126.6 142.905C127.064 142.601 127.448 142.201 127.752 141.705C128.072 141.193 128.304 140.617 128.448 139.977C128.608 139.337 128.688 138.689 128.688 138.033ZM133.84 140.313C133.84 139.465 133.848 138.745 133.864 138.153C133.896 137.545 133.912 136.945 133.912 136.353C133.912 135.793 133.904 135.185 133.888 134.529C133.888 133.873 133.88 133.209 133.864 132.537C134.264 132.617 134.6 132.657 134.872 132.657C135.128 132.657 135.456 132.617 135.856 132.537C135.776 133.497 135.712 134.553 135.664 135.705C135.632 136.841 135.616 138.009 135.616 139.209C135.616 140.041 135.688 140.681 135.832 141.129C135.976 141.561 136.152 141.889 136.36 142.113C136.584 142.369 136.864 142.585 137.2 142.761C137.552 142.921 137.96 143.001 138.424 143.001C139.096 143.001 139.656 142.857 140.104 142.569C140.552 142.265 140.88 141.897 141.088 141.465C141.2 141.193 141.288 140.961 141.352 140.769C141.416 140.577 141.464 140.321 141.496 140.001C141.544 139.681 141.568 139.249 141.568 138.705C141.584 138.161 141.592 137.417 141.592 136.473V134.457C141.592 134.105 141.584 133.769 141.568 133.449C141.568 133.129 141.56 132.825 141.544 132.537C141.72 132.569 141.888 132.601 142.048 132.633C142.208 132.649 142.376 132.657 142.552 132.657C142.728 132.657 142.896 132.649 143.056 132.633C143.216 132.601 143.376 132.569 143.536 132.537C143.456 133.785 143.408 134.993 143.392 136.161C143.376 137.313 143.368 138.537 143.368 139.833C143.368 140.553 143.376 141.257 143.392 141.945C143.408 142.633 143.432 143.297 143.464 143.937C143.144 143.905 142.832 143.889 142.528 143.889C142.224 143.889 141.912 143.905 141.592 143.937C141.608 143.793 141.616 143.641 141.616 143.481C141.632 143.321 141.64 143.153 141.64 142.977V141.945H141.592C141.176 142.713 140.64 143.281 139.984 143.649C139.328 144.001 138.616 144.177 137.848 144.177C136.6 144.177 135.616 143.849 134.896 143.193C134.192 142.521 133.84 141.561 133.84 140.313ZM153.344 137.961C153.072 138.057 152.752 138.137 152.384 138.201C152.032 138.265 151.672 138.337 151.304 138.417C150.936 138.481 150.568 138.569 150.2 138.681C149.848 138.793 149.528 138.945 149.24 139.137C148.968 139.329 148.744 139.569 148.568 139.857C148.408 140.145 148.328 140.513 148.328 140.961C148.328 141.713 148.544 142.281 148.976 142.665C149.408 143.049 149.888 143.241 150.416 143.241C151.024 143.241 151.576 143.073 152.072 142.737C152.584 142.401 152.976 142.009 153.248 141.561L153.344 137.961ZM147.416 133.689C148.136 133.145 148.8 132.777 149.408 132.585C150.016 132.393 150.64 132.297 151.28 132.297C151.856 132.297 152.384 132.385 152.864 132.561C153.344 132.721 153.752 132.961 154.088 133.281C154.424 133.585 154.688 133.961 154.88 134.409C155.072 134.841 155.168 135.321 155.168 135.849C155.168 136.761 155.152 137.673 155.12 138.585C155.088 139.481 155.072 140.433 155.072 141.441C155.072 141.633 155.072 141.841 155.072 142.065C155.088 142.273 155.128 142.465 155.192 142.641C155.256 142.801 155.344 142.937 155.456 143.049C155.584 143.161 155.768 143.217 156.008 143.217C156.088 143.217 156.168 143.217 156.248 143.217C156.344 143.201 156.432 143.169 156.512 143.121V143.649C156.336 143.729 156.112 143.793 155.84 143.841C155.584 143.889 155.296 143.913 154.976 143.913C154.464 143.913 154.072 143.785 153.8 143.529C153.528 143.257 153.368 142.913 153.32 142.497C152.744 143.073 152.176 143.497 151.616 143.769C151.056 144.041 150.368 144.177 149.552 144.177C149.152 144.177 148.76 144.121 148.376 144.009C147.992 143.897 147.648 143.713 147.344 143.457C147.056 143.201 146.816 142.897 146.624 142.545C146.448 142.177 146.36 141.761 146.36 141.297C146.36 140.337 146.656 139.593 147.248 139.065C147.856 138.537 148.688 138.185 149.744 138.009C150.608 137.865 151.28 137.745 151.76 137.649C152.256 137.537 152.616 137.425 152.84 137.313C153.08 137.201 153.224 137.073 153.272 136.929C153.32 136.769 153.344 136.569 153.344 136.329C153.344 135.929 153.296 135.545 153.2 135.177C153.104 134.809 152.952 134.489 152.744 134.217C152.536 133.945 152.264 133.729 151.928 133.569C151.592 133.393 151.184 133.305 150.704 133.305C150.064 133.305 149.464 133.449 148.904 133.737C148.36 134.025 147.952 134.425 147.68 134.937H147.416V133.689ZM164.672 134.505C164.592 134.409 164.432 134.321 164.192 134.241C163.968 134.161 163.736 134.121 163.496 134.121C163.112 134.121 162.768 134.209 162.464 134.385C162.16 134.561 161.904 134.801 161.696 135.105C161.488 135.393 161.328 135.745 161.216 136.161C161.104 136.561 161.048 136.993 161.048 137.457V140.097C161.048 141.169 161.048 141.993 161.048 142.569C161.064 143.129 161.096 143.585 161.144 143.937C160.824 143.905 160.504 143.889 160.184 143.889C159.832 143.889 159.496 143.905 159.176 143.937C159.224 143.393 159.248 142.657 159.248 141.729C159.264 140.785 159.272 139.633 159.272 138.273V137.505C159.272 136.881 159.264 136.161 159.248 135.345C159.248 134.529 159.224 133.593 159.176 132.537C159.352 132.569 159.52 132.601 159.68 132.633C159.84 132.649 160.008 132.657 160.184 132.657C160.328 132.657 160.48 132.649 160.64 132.633C160.8 132.601 160.968 132.569 161.144 132.537C161.08 133.113 161.04 133.569 161.024 133.905C161.024 134.241 161.024 134.561 161.024 134.865L161.072 134.889C162.016 133.161 163.072 132.297 164.24 132.297C164.384 132.297 164.504 132.305 164.6 132.321C164.712 132.337 164.848 132.377 165.008 132.441C164.928 132.633 164.88 132.929 164.864 133.329C164.848 133.713 164.84 134.065 164.84 134.385L164.672 134.505ZM167.456 128.361C167.456 128.025 167.576 127.737 167.816 127.497C168.056 127.257 168.344 127.137 168.68 127.137C169.016 127.137 169.304 127.257 169.544 127.497C169.784 127.737 169.904 128.025 169.904 128.361C169.904 128.697 169.784 128.985 169.544 129.225C169.304 129.465 169.016 129.585 168.68 129.585C168.344 129.585 168.056 129.465 167.816 129.225C167.576 128.985 167.456 128.697 167.456 128.361ZM167.792 137.025C167.792 136.305 167.776 135.553 167.744 134.769C167.728 133.969 167.68 133.225 167.6 132.537C168.048 132.617 168.408 132.657 168.68 132.657C168.952 132.657 169.312 132.617 169.76 132.537C169.68 133.225 169.624 133.969 169.592 134.769C169.576 135.553 169.568 136.305 169.568 137.025V139.521C169.568 140.241 169.576 141.001 169.592 141.801C169.624 142.585 169.68 143.297 169.76 143.937C169.392 143.905 169.032 143.889 168.68 143.889C168.328 143.889 167.968 143.905 167.6 143.937C167.68 143.297 167.728 142.585 167.744 141.801C167.776 141.001 167.792 140.241 167.792 139.521V137.025ZM173.847 140.313C173.847 139.465 173.855 138.745 173.871 138.153C173.903 137.545 173.919 136.945 173.919 136.353C173.919 135.793 173.911 135.185 173.895 134.529C173.895 133.873 173.887 133.209 173.871 132.537C174.271 132.617 174.607 132.657 174.879 132.657C175.135 132.657 175.463 132.617 175.863 132.537C175.783 133.497 175.719 134.553 175.671 135.705C175.639 136.841 175.623 138.009 175.623 139.209C175.623 140.041 175.695 140.681 175.839 141.129C175.983 141.561 176.159 141.889 176.367 142.113C176.591 142.369 176.871 142.585 177.207 142.761C177.559 142.921 177.967 143.001 178.431 143.001C179.103 143.001 179.663 142.857 180.111 142.569C180.559 142.265 180.887 141.897 181.095 141.465C181.207 141.193 181.295 140.961 181.359 140.769C181.423 140.577 181.471 140.321 181.503 140.001C181.551 139.681 181.575 139.249 181.575 138.705C181.591 138.161 181.599 137.417 181.599 136.473V134.457C181.599 134.105 181.591 133.769 181.575 133.449C181.575 133.129 181.567 132.825 181.551 132.537C181.727 132.569 181.895 132.601 182.055 132.633C182.215 132.649 182.383 132.657 182.559 132.657C182.735 132.657 182.903 132.649 183.063 132.633C183.223 132.601 183.383 132.569 183.543 132.537C183.463 133.785 183.415 134.993 183.399 136.161C183.383 137.313 183.375 138.537 183.375 139.833C183.375 140.553 183.383 141.257 183.399 141.945C183.415 142.633 183.439 143.297 183.471 143.937C183.151 143.905 182.839 143.889 182.535 143.889C182.231 143.889 181.919 143.905 181.599 143.937C181.615 143.793 181.623 143.641 181.623 143.481C181.639 143.321 181.647 143.153 181.647 142.977V141.945H181.599C181.183 142.713 180.647 143.281 179.991 143.649C179.335 144.001 178.623 144.177 177.855 144.177C176.607 144.177 175.623 143.849 174.903 143.193C174.199 142.521 173.847 141.561 173.847 140.313ZM187.231 137.025C187.231 136.305 187.215 135.553 187.183 134.769C187.167 133.969 187.119 133.225 187.039 132.537C187.487 132.617 187.847 132.657 188.119 132.657C188.247 132.657 188.383 132.649 188.527 132.633C188.687 132.601 188.871 132.569 189.079 132.537C189.031 133.177 189.007 133.817 189.007 134.457H189.055C189.903 133.017 191.095 132.297 192.631 132.297C193.031 132.297 193.423 132.361 193.807 132.489C194.191 132.601 194.535 132.761 194.839 132.969C195.159 133.177 195.431 133.433 195.655 133.737C195.879 134.025 196.031 134.337 196.111 134.673H196.159C196.543 133.905 197.063 133.321 197.719 132.921C198.391 132.505 199.159 132.297 200.023 132.297C200.551 132.297 201.039 132.369 201.487 132.513C201.935 132.657 202.319 132.881 202.639 133.185C202.975 133.489 203.231 133.881 203.407 134.361C203.599 134.841 203.695 135.417 203.695 136.089C203.695 136.361 203.687 136.657 203.671 136.977C203.655 137.297 203.639 137.673 203.623 138.105C203.607 138.521 203.591 139.001 203.575 139.545C203.559 140.073 203.551 140.689 203.551 141.393C203.551 141.825 203.551 142.241 203.551 142.641C203.567 143.041 203.591 143.473 203.623 143.937C203.447 143.905 203.271 143.889 203.095 143.889C202.919 143.889 202.751 143.889 202.591 143.889C202.415 143.889 202.239 143.889 202.063 143.889C201.887 143.889 201.711 143.905 201.535 143.937C201.583 143.537 201.631 142.729 201.679 141.513C201.743 140.297 201.775 138.601 201.775 136.425C201.775 136.025 201.727 135.649 201.631 135.297C201.551 134.945 201.415 134.641 201.223 134.385C201.031 134.129 200.775 133.929 200.455 133.785C200.135 133.625 199.735 133.545 199.255 133.545C198.679 133.545 198.191 133.657 197.791 133.881C197.391 134.105 197.079 134.369 196.855 134.673C196.727 134.849 196.623 135.025 196.543 135.201C196.479 135.377 196.423 135.649 196.375 136.017C196.343 136.369 196.319 136.873 196.303 137.529C196.287 138.169 196.279 139.057 196.279 140.193C196.279 140.881 196.287 141.513 196.303 142.089C196.335 142.649 196.367 143.265 196.399 143.937C196.031 143.905 195.679 143.889 195.343 143.889C195.007 143.889 194.655 143.905 194.287 143.937C194.367 143.057 194.423 142.161 194.455 141.249C194.487 140.337 194.503 139.441 194.503 138.561C194.503 137.809 194.495 137.225 194.479 136.809C194.479 136.377 194.463 136.041 194.431 135.801C194.399 135.545 194.351 135.337 194.287 135.177C194.239 135.017 194.167 134.841 194.071 134.649C193.895 134.345 193.615 134.089 193.231 133.881C192.863 133.657 192.479 133.545 192.079 133.545C191.023 133.545 190.247 133.889 189.751 134.577C189.255 135.265 189.007 136.233 189.007 137.481V139.521C189.007 140.241 189.015 141.001 189.031 141.801C189.063 142.585 189.119 143.297 189.199 143.937C188.831 143.905 188.471 143.889 188.119 143.889C187.767 143.889 187.407 143.905 187.039 143.937C187.119 143.297 187.167 142.585 187.183 141.801C187.215 141.001 187.231 140.241 187.231 139.521V137.025Z" fill="#E9F6F9"/>
<path d="M756.29 440.318L750.654 428.551C746.904 430.347 742.156 428.268 740.061 423.893L336.119 617.364C328.876 620.833 326.274 630.482 330.316 638.922L434.649 856.755C438.686 865.183 447.833 869.205 455.078 865.735L859.021 672.264C856.931 667.899 858.273 662.891 862.032 661.09L856.402 649.335C852.196 651.336 846.785 648.51 845.184 643.069C844.203 639.7 845.16 636.151 847.553 634.282C847.944 633.976 848.366 633.712 848.813 633.494L848.814 633.493L843.184 621.738L843.183 621.738C838.977 623.74 833.566 620.913 831.966 615.473C830.985 612.104 831.942 608.555 834.334 606.686C834.725 606.38 835.148 606.116 835.594 605.898L835.597 605.897L829.966 594.142L829.965 594.142C825.759 596.144 820.348 593.317 818.748 587.876C817.766 584.507 818.723 580.958 821.116 579.089C821.507 578.783 821.929 578.519 822.376 578.301L822.379 578.3L816.748 566.545L816.746 566.546C812.54 568.547 807.13 565.72 805.529 560.28C804.548 556.911 805.505 553.362 807.898 551.493C808.289 551.187 808.711 550.923 809.158 550.705L809.161 550.704L803.531 538.948L803.528 538.949C799.322 540.951 793.911 538.124 792.311 532.684C791.33 529.314 792.287 525.765 794.679 523.896C795.07 523.59 795.493 523.326 795.939 523.109L795.943 523.107L790.313 511.352L790.31 511.353C786.104 513.355 780.693 510.528 779.093 505.088C778.112 501.719 779.069 498.17 781.461 496.301C781.853 495.995 782.275 495.731 782.722 495.513L782.726 495.511L777.095 483.756L777.092 483.757C772.886 485.759 767.475 482.932 765.869 477.481C764.893 474.122 765.85 470.573 768.243 468.704C768.634 468.398 769.056 468.134 769.503 467.916L769.508 467.914L763.878 456.159L763.874 456.161C759.668 458.162 754.257 455.336 752.651 449.885C751.675 446.526 752.632 442.978 755.025 441.109C755.416 440.802 755.839 440.538 756.285 440.321L756.29 440.318Z" fill="#47B5FF"/>
<path d="M862.03 661.097L856.4 649.342C856.847 649.124 857.269 648.86 857.66 648.555M848.813 633.502L843.182 621.746C843.628 621.528 844.051 621.264 844.442 620.958M835.594 605.905L829.963 594.149C830.41 593.931 830.832 593.667 831.224 593.361M822.376 578.308L816.745 566.553C817.192 566.335 817.614 566.071 818.005 565.765M809.158 550.712L803.527 538.956C803.973 538.738 804.396 538.474 804.787 538.168M795.939 523.115L790.309 511.36C790.755 511.142 791.177 510.878 791.569 510.572M782.721 495.519L777.09 483.763C777.537 483.545 777.959 483.281 778.35 482.975M769.502 467.922L763.872 456.166C764.318 455.948 764.74 455.684 765.132 455.379M756.284 440.326L750.648 428.56" stroke="#EAF6FB" strokewidth="0.75"/>
<path d="M834.279 672.781L460.737 851.692C453.519 855.148 444.406 851.143 440.384 842.744L344.827 643.235C340.805 634.836 343.395 625.223 350.612 621.767L724.154 442.856C731.372 439.399 740.484 443.406 744.507 451.805L840.064 651.315C844.086 659.714 841.496 669.324 834.279 672.781Z" stroke="#E5F4FF" strokewidth="3"/>
<path d="M713.036 611.91C709.409 608.465 705.587 605.23 701.591 602.22C687.544 591.381 671.993 582.647 655.428 576.293C631.419 567.19 606.904 564.56 583.993 568.322C551.192 573.708 522.757 591.572 499.011 614.711C495.201 618.425 491.359 622.797 487.229 626.351C483.034 629.967 477.736 631.75 473.699 635.523C470.505 638.506 468.747 642.977 466.733 647.104C462.19 656.228 458.646 665.815 456.161 675.699C453.324 687.028 452.468 698.762 453.632 710.382C454.16 715.36 454.21 721.794 457.31 726.244C464.949 737.207 481.007 734.367 489.915 733.537C503.066 732.315 515.697 728.871 527.944 724.801C539.964 720.738 551.769 716.066 563.313 710.802C563.313 710.802 619.256 686.638 653.044 643.275C653.044 643.275 679.796 620.818 701.691 625.237C728.339 646.509 752.488 660.003 773.537 663.857C766.828 657.714 759.845 651.859 753.854 644.659C747.962 637.575 745.333 628.234 739.828 620.856C736.878 616.9 730.396 615.76 730.933 609.538C731.205 606.379 731.887 598.499 734.629 597.186C734.629 597.186 722.13 592.385 701.592 602.222" stroke="#E5F4FF" strokewidth="3" strokelinecap="round"/>
<path d="M569.377 682.178C581.722 687.427 597.756 701.288 597.092 717.907C596.904 722.582 591.826 721.816 588.698 721.204C574.903 718.508 560.591 706.987 548.682 697.349" stroke="#E5F4FF" strokewidth="3" strokelinecap="round"/>
<path d="M461.303 729.51C462.729 734.721 457.14 700.255 473.388 700.526C484.109 700.703 511.09 719.446 519.259 698.526" stroke="#E5F4FF" strokewidth="3" strokelinecap="round"/>
<path d="M530.73 671.912C531.584 673.696 530.069 676.198 527.348 677.501C524.627 678.804 521.729 678.416 520.874 676.633C520.02 674.849 521.535 672.347 524.256 671.044C526.977 669.741 529.876 670.129 530.73 671.912Z" fill="#221E1F"/>
<path d="M834.279 672.781L460.737 851.692C453.519 855.148 444.406 851.143 440.384 842.744L344.827 643.235C340.805 634.836 343.395 625.223 350.612 621.767L724.154 442.856C731.372 439.399 740.484 443.406 744.507 451.805L840.064 651.315C844.086 659.714 841.496 669.324 834.279 672.781Z" stroke="#E5F4FF" strokewidth="3"/>
<path d="M713.036 611.91C709.409 608.465 705.587 605.23 701.591 602.22C687.544 591.381 671.993 582.647 655.428 576.293C631.419 567.19 606.904 564.56 583.993 568.322C551.192 573.708 522.757 591.572 499.011 614.711C495.201 618.425 491.359 622.797 487.229 626.351C483.034 629.967 477.736 631.75 473.699 635.523C470.505 638.506 468.747 642.977 466.733 647.104C462.19 656.228 458.646 665.815 456.161 675.699C453.324 687.028 452.468 698.762 453.632 710.382C454.16 715.36 454.21 721.794 457.31 726.244C464.949 737.207 481.007 734.367 489.915 733.537C503.066 732.315 515.697 728.871 527.944 724.801C539.964 720.738 551.769 716.066 563.313 710.802" stroke="#E5F4FF" strokewidth="3" strokelinecap="round"/>
<path d="M589.782 696.815C608.819 685.421 634.331 667.293 653.045 643.275C653.045 643.275 679.798 620.817 701.692 625.237C728.341 646.508 752.489 660.003 773.538 663.857C766.83 657.713 759.846 651.859 753.856 644.659C747.963 637.575 745.334 628.234 739.83 620.856C736.88 616.9 730.398 615.76 730.934 609.538C731.207 606.378 731.889 598.499 734.63 597.185C734.63 597.185 722.132 592.385 701.594 602.222" stroke="#E5F4FF" strokewidth="3" strokelinecap="round"/>
<path d="M569.377 682.178C581.722 687.427 597.756 701.288 597.092 717.907C596.904 722.582 591.826 721.816 588.698 721.204C574.903 718.508 560.591 706.987 548.682 697.349" stroke="#E5F4FF" strokewidth="3" strokelinecap="round"/>
<path d="M461.303 729.51C462.729 734.721 457.14 700.255 473.388 700.526C484.109 700.703 511.09 719.446 519.259 698.526" stroke="#E5F4FF" strokewidth="3" strokelinecap="round"/>
<path d="M530.73 671.912C531.584 673.696 530.069 676.198 527.348 677.501C524.627 678.804 521.729 678.416 520.874 676.633C520.02 674.849 521.535 672.347 524.256 671.044C526.977 669.741 529.876 670.129 530.73 671.912Z" fill="#221E1F"/>
<circle cx="725.942" cy="464.861" r="7" transform="rotate(-25.5924 725.942 464.861)" fill="#E5F4FF"/>
<circle cx="366.089" cy="637.215" r="7" transform="rotate(-25.5924 366.089 637.215)" fill="#E5F4FF"/>
<rect x="449.193" y="826.93" width="14" height="14" transform="rotate(-25.5924 449.193 826.93)" fill="#E5F4FF"/>
<rect x="809.047" y="654.575" width="14" height="14" transform="rotate(-25.5924 809.047 654.575)" fill="#E5F4FF"/>
<path d="M551.969 770.085L551.623 769.364L552.173 769.03C552.809 768.63 553.273 768.29 553.564 768.008C553.874 767.718 553.995 767.329 553.927 766.841C553.859 766.353 553.595 765.628 553.134 764.666L546.001 749.774C545.727 749.645 545.357 749.539 544.89 749.455C544.415 749.351 543.841 749.461 543.167 749.783L542.302 750.198L541.942 749.448L547.583 746.853C548.159 747.168 548.925 747.581 549.88 748.094C550.854 748.597 551.928 749.159 553.101 749.78C554.292 750.392 555.517 751.023 556.775 751.675C558.024 752.306 559.23 752.923 560.394 753.525C561.576 754.118 562.636 754.651 563.573 755.125C564.509 755.599 565.247 755.979 565.786 756.265L560.561 745.355C560.1 744.393 559.706 743.743 559.378 743.403C559.04 743.044 558.661 742.895 558.24 742.954C557.829 742.985 557.273 743.133 556.572 743.398L555.968 743.617L555.622 742.896L559.415 741.185L562.895 739.412L563.24 740.134L562.691 740.468C562.074 740.858 561.614 741.208 561.313 741.518C561.003 741.808 560.877 742.188 560.936 742.657C560.995 743.125 561.255 743.84 561.716 744.802L569.691 761.455L568.826 761.87C568.214 761.382 567.379 760.824 566.321 760.195C565.273 759.538 564.087 758.841 562.764 758.103C561.44 757.364 560.069 756.626 558.65 755.886C557.242 755.118 555.852 754.388 554.48 753.697C553.108 753.005 551.84 752.383 550.676 751.829C549.511 751.275 548.536 750.819 547.75 750.462L554.289 764.113C554.749 765.075 555.148 765.736 555.486 766.094C555.823 766.453 556.202 766.603 556.623 766.543C557.044 766.483 557.6 766.335 558.291 766.099L558.896 765.88L559.241 766.602L555.492 768.256L551.969 770.085ZM578.134 757.802C577.21 758.244 576.33 758.382 575.493 758.215C574.666 758.02 574.05 757.499 573.645 756.652C573.239 755.805 573.255 754.875 573.692 753.862C574.12 752.829 574.705 751.804 575.447 750.786C575.995 750.003 576.57 749.278 577.173 748.611C577.776 747.944 578.296 747.375 578.734 746.905L578.291 745.982C577.784 744.924 577.205 744.232 576.552 743.906C575.918 743.57 575.053 743.666 573.956 744.191C573.437 744.44 572.959 744.751 572.523 745.125C572.088 745.5 571.957 745.87 572.132 746.235C572.169 746.312 572.22 746.394 572.286 746.481C572.37 746.559 572.445 746.641 572.511 746.728C572.727 746.932 572.899 747.169 573.028 747.438C573.203 747.804 573.207 748.157 573.039 748.498C572.881 748.81 572.619 749.054 572.253 749.229C571.907 749.395 571.559 749.408 571.208 749.268C570.848 749.109 570.581 748.847 570.405 748.482C570.074 747.789 570.071 747.116 570.397 746.463C570.733 745.782 571.244 745.17 571.931 744.629C572.608 744.068 573.303 743.617 574.015 743.276C575.554 742.539 576.85 742.355 577.903 742.726C578.956 743.097 579.869 744.091 580.643 745.707L583.131 750.902C583.537 751.748 583.908 752.375 584.245 752.781C584.6 753.179 585 753.271 585.442 753.059C585.731 752.921 585.93 752.696 586.04 752.383C586.151 752.07 586.184 751.77 586.142 751.483L586.758 751.436C586.871 752.067 586.804 752.644 586.557 753.164C586.329 753.676 585.868 754.097 585.176 754.429C584.329 754.834 583.627 754.875 583.069 754.551C582.522 754.198 582.036 753.627 581.61 752.837C581.486 753.961 581.121 754.952 580.515 755.81C579.909 756.668 579.115 757.332 578.134 757.802ZM575.827 755.43C576.085 755.968 576.446 756.327 576.91 756.507C577.385 756.658 577.93 756.586 578.546 756.292C579.104 756.024 579.568 755.636 579.939 755.127C580.33 754.609 580.621 754.056 580.812 753.467C580.994 752.86 581.066 752.269 581.028 751.696L579.01 747.483C578.504 748.056 578.002 748.687 577.504 749.375C577.015 750.035 576.589 750.724 576.223 751.443C575.877 752.153 575.656 752.85 575.558 753.536C575.451 754.202 575.541 754.833 575.827 755.43ZM594.793 749.823C593.696 750.348 592.562 750.524 591.392 750.352C590.221 750.179 589.132 749.707 588.124 748.937C587.107 748.146 586.299 747.126 585.7 745.875C585.101 744.625 584.821 743.375 584.862 742.125C584.902 740.876 585.231 739.737 585.85 738.707C586.469 737.678 587.345 736.891 588.481 736.347C589.308 735.951 590.156 735.77 591.023 735.804C591.901 735.809 592.662 735.941 593.307 736.2L594.033 733.865L594.466 733.658L602.87 751.205C603.285 752.071 603.638 752.659 603.928 752.969C604.228 753.299 604.545 753.442 604.88 753.4C605.243 753.368 605.722 753.257 606.317 753.067L606.806 752.903L607.124 753.567L603.533 755.181L600.025 756.968L599.707 756.304L600.141 756.025C600.662 755.681 601.039 755.382 601.272 755.128C601.534 754.885 601.631 754.543 601.562 754.103C601.502 753.682 601.265 753.038 600.85 752.173L597.934 746.083C597.681 746.89 597.297 747.618 596.78 748.268C596.263 748.917 595.601 749.436 594.793 749.823ZM588.008 744.77C588.543 745.885 589.157 746.821 589.85 747.577C590.563 748.324 591.322 748.824 592.129 749.076C592.955 749.319 593.801 749.233 594.667 748.819C595.494 748.422 596.118 747.899 596.54 747.247C596.971 746.568 597.279 745.852 597.464 745.102L593.731 737.309C593.165 736.966 592.458 736.749 591.61 736.658C590.762 736.567 589.944 736.711 589.155 737.089C588.27 737.513 587.663 738.122 587.335 738.918C586.997 739.695 586.896 740.595 587.031 741.618C587.158 742.622 587.483 743.673 588.008 744.77ZM609.949 742.563C608.698 743.162 607.56 743.329 606.534 743.064C605.518 742.77 604.715 742.007 604.125 740.776L601.444 735.177C601.029 734.311 600.677 733.723 600.386 733.413C600.086 733.083 599.755 732.934 599.392 732.966C599.048 732.989 598.583 733.105 597.997 733.315L597.508 733.478L597.19 732.814L600.781 731.201L601.778 730.688L606.09 739.693C606.542 740.635 607.128 741.242 607.849 741.512C608.569 741.781 609.343 741.718 610.171 741.322C610.882 740.981 611.434 740.528 611.825 739.962C612.227 739.367 612.5 738.728 612.645 738.043C612.81 737.35 612.883 736.688 612.865 736.058L610.391 730.892C609.976 730.026 609.623 729.438 609.333 729.127C609.033 728.798 608.702 728.649 608.338 728.681C607.995 728.704 607.53 728.82 606.944 729.03L606.455 729.193L606.137 728.529L609.728 726.916L610.724 726.403L615.189 735.725C615.539 736.456 615.889 736.963 616.237 737.246C616.595 737.5 616.975 737.602 617.377 737.551C617.798 737.492 618.268 737.337 618.787 737.089L619.105 737.752C618.316 738.13 617.599 738.485 616.954 738.818C616.309 739.15 615.601 739.596 614.828 740.156L613.556 737.501C613.511 737.901 613.438 738.267 613.337 738.599C613.104 739.397 612.719 740.149 612.182 740.855C611.636 741.542 610.892 742.112 609.949 742.563ZM624.215 735.731C623.291 736.173 622.411 736.311 621.574 736.144C620.747 735.949 620.131 735.428 619.725 734.581C619.32 733.735 619.336 732.805 619.773 731.791C620.201 730.758 620.786 729.733 621.528 728.715C622.076 727.932 622.651 727.207 623.254 726.54C623.857 725.873 624.377 725.304 624.815 724.835L624.372 723.911C623.865 722.853 623.286 722.161 622.633 721.835C621.999 721.5 621.134 721.595 620.037 722.12C619.518 722.369 619.04 722.68 618.604 723.055C618.169 723.429 618.038 723.799 618.213 724.164C618.25 724.241 618.301 724.323 618.367 724.41C618.451 724.488 618.526 724.57 618.591 724.657C618.807 724.861 618.98 725.098 619.109 725.368C619.284 725.733 619.288 726.086 619.12 726.427C618.962 726.739 618.7 726.983 618.334 727.158C617.988 727.324 617.64 727.337 617.289 727.197C616.929 727.039 616.661 726.776 616.486 726.411C616.155 725.718 616.152 725.045 616.478 724.393C616.814 723.711 617.325 723.1 618.012 722.558C618.689 721.997 619.384 721.546 620.096 721.205C621.635 720.468 622.931 720.285 623.984 720.656C625.037 721.026 625.95 722.02 626.724 723.636L629.212 728.831C629.618 729.678 629.989 730.304 630.325 730.711C630.681 731.108 631.081 731.201 631.523 730.989C631.812 730.85 632.011 730.625 632.121 730.312C632.232 729.999 632.265 729.699 632.223 729.412L632.839 729.365C632.952 729.997 632.885 730.573 632.638 731.093C632.41 731.605 631.949 732.026 631.256 732.358C630.41 732.764 629.708 732.804 629.15 732.48C628.603 732.127 628.116 731.556 627.691 730.766C627.567 731.89 627.202 732.881 626.596 733.739C625.989 734.597 625.196 735.261 624.215 735.731ZM621.907 733.359C622.166 733.897 622.527 734.257 622.991 734.436C623.466 734.587 624.011 734.516 624.627 734.221C625.185 733.953 625.649 733.565 626.02 733.056C626.411 732.538 626.702 731.985 626.893 731.397C627.075 730.789 627.147 730.199 627.109 729.625L625.091 725.412C624.585 725.985 624.083 726.616 623.585 727.304C623.096 727.964 622.67 728.653 622.304 729.372C621.958 730.082 621.737 730.78 621.639 731.465C621.532 732.131 621.622 732.762 621.907 733.359ZM634.414 730.562L634.096 729.898L634.53 729.619C635.051 729.275 635.433 728.986 635.676 728.751C635.928 728.488 636.025 728.147 635.965 727.726C635.896 727.286 635.654 726.633 635.24 725.767L632.364 719.764C632.005 719.014 631.637 718.516 631.259 718.271C630.901 718.017 630.511 717.943 630.089 718.051C629.658 718.139 629.183 718.307 628.664 718.556L628.346 717.892C629.134 717.514 629.881 717.122 630.584 716.714C631.288 716.306 632.006 715.855 632.74 715.362L634.012 718.833L634.127 718.778C633.933 717.286 634.02 716.133 634.386 715.318C634.753 714.504 635.293 713.926 636.005 713.585C636.813 713.198 637.448 713.142 637.911 713.417C638.365 713.673 638.679 713.984 638.854 714.349C639.057 714.773 639.098 715.179 638.977 715.568C638.856 715.957 638.583 716.253 638.16 716.456C637.756 716.649 637.402 716.701 637.098 716.61C636.794 716.519 636.583 716.348 636.463 716.098C636.371 715.905 636.302 715.713 636.258 715.522C636.233 715.321 636.197 715.172 636.151 715.076C636.059 714.884 635.878 714.852 635.609 714.981C635.339 715.11 635.111 715.374 634.923 715.771C634.754 716.159 634.67 716.626 634.67 717.169C634.672 717.618 634.702 718.1 634.76 718.617C634.818 719.133 634.923 719.674 635.076 720.239L637.26 724.799C637.674 725.665 638.032 726.263 638.331 726.592C638.622 726.903 638.939 727.046 639.283 727.023C639.637 726.972 640.111 726.851 640.706 726.661L641.196 726.498L641.514 727.162L637.922 728.775L634.414 730.562ZM645.716 725.149L645.398 724.485L645.832 724.206C646.353 723.862 646.735 723.573 646.977 723.338C647.23 723.075 647.326 722.734 647.267 722.313C647.198 721.873 646.956 721.22 646.541 720.354L643.625 714.264C643.146 713.264 642.63 712.73 642.077 712.664C641.535 712.568 640.899 712.696 640.167 713.046L639.965 713.143L639.647 712.479C640.436 712.101 641.187 711.718 641.9 711.329C642.603 710.922 643.317 710.461 644.042 709.949L648.562 719.386C648.976 720.252 649.334 720.85 649.633 721.179C649.924 721.489 650.241 721.633 650.585 721.61C650.939 721.559 651.413 721.438 652.008 721.248L652.497 721.085L652.815 721.748L649.224 723.362L645.716 725.149ZM641.068 707.222C640.568 707.461 640.09 707.477 639.636 707.269C639.181 707.061 638.839 706.716 638.608 706.235C638.369 705.735 638.315 705.252 638.447 704.787C638.57 704.303 638.881 703.94 639.381 703.701C639.939 703.434 640.426 703.413 640.842 703.64C641.268 703.838 641.601 704.187 641.841 704.687C642.071 705.168 642.135 705.646 642.031 706.122C641.947 706.588 641.626 706.955 641.068 707.222ZM660.089 718.549C658.838 719.148 657.7 719.315 656.674 719.049C655.658 718.755 654.855 717.992 654.265 716.761L651.583 711.162C651.169 710.296 650.816 709.708 650.525 709.398C650.226 709.068 649.894 708.92 649.531 708.952C649.187 708.974 648.722 709.091 648.137 709.3L647.647 709.464L647.329 708.8L650.921 707.186L651.917 706.673L656.23 715.678C656.681 716.621 657.267 717.227 657.988 717.497C658.709 717.767 659.483 717.704 660.31 717.307C661.022 716.966 661.573 716.513 661.965 715.947C662.366 715.353 662.639 714.713 662.785 714.029C662.949 713.335 663.022 712.673 663.004 712.043L660.53 706.877C660.115 706.011 659.763 705.423 659.472 705.113C659.172 704.783 658.841 704.635 658.478 704.667C658.134 704.689 657.669 704.805 657.084 705.015L656.594 705.178L656.276 704.515L659.868 702.901L660.864 702.388L665.329 711.71C665.679 712.441 666.028 712.948 666.376 713.231C666.735 713.485 667.115 713.587 667.516 713.537C667.937 713.477 668.407 713.323 668.927 713.074L669.245 713.738C668.456 714.115 667.739 714.471 667.094 714.803C666.449 715.136 665.74 715.582 664.967 716.141L663.695 713.486C663.65 713.886 663.577 714.252 663.476 714.584C663.243 715.382 662.859 716.134 662.322 716.841C661.776 717.528 661.031 718.097 660.089 718.549ZM670.405 713.324L670.087 712.66L670.521 712.381C671.042 712.037 671.424 711.748 671.667 711.513C671.919 711.25 672.016 710.908 671.956 710.488C671.887 710.047 671.645 709.395 671.231 708.529L668.314 702.439C667.982 701.746 667.632 701.287 667.264 701.062C666.906 700.807 666.511 700.724 666.08 700.812C665.649 700.901 665.174 701.069 664.655 701.318L664.337 700.654C665.126 700.276 665.876 699.893 666.589 699.504C667.292 699.096 668.006 698.636 668.731 698.124L669.809 700.375C669.919 699.518 670.234 698.669 670.754 697.829C671.293 696.979 672.063 696.315 673.063 695.836C674.083 695.347 675.036 695.163 675.921 695.283C676.816 695.375 677.601 695.827 678.274 696.64C678.346 695.754 678.648 694.852 679.179 693.936C679.7 693 680.5 692.274 681.577 691.758C682.828 691.159 683.975 691.011 685.02 691.315C686.084 691.61 686.956 692.469 687.638 693.893L690.279 699.406C690.684 700.252 691.027 700.845 691.307 701.184C691.598 701.494 691.915 701.638 692.259 701.615C692.622 701.583 693.101 701.472 693.696 701.281L694.185 701.118L694.503 701.782L690.941 703.381L687.721 705.03L687.403 704.366L687.837 704.087C688.291 703.799 688.615 703.538 688.81 703.302C689.024 703.058 689.091 702.73 689.012 702.318C688.924 701.887 688.673 701.239 688.258 700.373L685.383 694.37C684.978 693.524 684.429 692.97 683.737 692.711C683.035 692.431 682.261 692.495 681.415 692.9C680.722 693.232 680.19 693.676 679.818 694.233C679.446 694.789 679.197 695.382 679.072 696.009C678.966 696.628 678.942 697.195 679 697.711C679.037 697.788 679.078 697.875 679.124 697.971L681.765 703.483C682.179 704.349 682.527 704.951 682.807 705.29C683.079 705.61 683.367 705.767 683.673 705.763C683.988 705.73 684.405 705.637 684.922 705.483L685.412 705.32L685.73 705.984L682.427 707.459L679.207 709.108L678.889 708.444L679.324 708.165C679.768 707.858 680.092 707.596 680.296 707.38C680.51 707.136 680.578 706.808 680.499 706.396C680.411 705.965 680.159 705.317 679.744 704.451L676.869 698.448C676.464 697.601 675.915 697.048 675.223 696.788C674.521 696.509 673.747 696.572 672.901 696.978C672.228 697.3 671.705 697.74 671.333 698.297C670.961 698.853 670.712 699.446 670.587 700.073C670.462 700.701 670.428 701.273 670.486 701.789L673.251 707.561C673.666 708.427 674.013 709.029 674.294 709.368C674.565 709.687 674.853 709.845 675.159 709.841C675.474 709.808 675.891 709.715 676.409 709.561L676.898 709.398L677.216 710.062L673.913 711.537L670.405 713.324Z" fill="#E5F4FF"/>
<g filter="url(#filter0_dg_261_690)">
<path d="M1199.58 640.665L1025.8 808.405C1019.07 814.895 1009.1 815.472 1003.52 809.693L872.239 673.686C875.721 670.325 876.204 665.156 873.316 662.164L882.693 653.113C883.041 653.468 883.425 653.785 883.838 654.06C886.376 655.732 890.036 655.529 892.917 653.527C897.582 650.3 898.558 644.258 895.33 640.914L904.709 631.861C905.057 632.216 905.44 632.534 905.854 632.809C908.392 634.481 912.06 634.269 914.933 632.276C919.598 629.048 920.573 623.007 917.346 619.663L926.725 610.61C927.072 610.965 927.456 611.282 927.87 611.557C930.408 613.23 934.076 613.018 936.948 611.024C941.614 607.797 942.589 601.755 939.362 598.412L948.74 589.359C949.087 589.714 949.471 590.032 949.885 590.306C952.423 591.979 956.091 591.767 958.964 589.774C963.629 586.546 964.604 580.504 961.377 577.161L970.755 568.108C971.103 568.463 971.487 568.78 971.901 569.055C974.439 570.728 978.107 570.516 980.979 568.522C985.645 565.295 986.62 559.253 983.392 555.909L992.771 546.857C993.118 547.212 993.502 547.529 993.916 547.804C996.454 549.477 1000.12 549.265 1002.99 547.271C1007.66 544.044 1008.63 538.002 1005.41 534.659L1014.79 525.606C1015.13 525.961 1015.52 526.278 1015.93 526.553C1018.47 528.225 1022.14 528.014 1025.01 526.02C1029.68 522.793 1030.65 516.75 1027.42 513.407L1036.8 504.354C1037.15 504.709 1037.53 505.027 1037.95 505.302C1040.49 506.974 1044.15 506.762 1047.03 504.769C1051.69 501.541 1052.67 495.5 1049.44 492.156L1058.83 483.095C1061.71 486.087 1066.89 485.796 1070.38 482.427L1201.66 618.434C1207.24 624.213 1206.31 634.163 1199.57 640.662" fill="#E5F4FF"/>
</g>
<path d="M1003.26 794.386L894.738 681.956C889.18 676.198 890.105 666.287 896.805 659.82L1055.97 506.189C1062.67 499.722 1072.61 499.147 1078.17 504.905L1186.69 617.335C1192.25 623.093 1191.32 633.004 1184.62 639.472L1025.45 793.102C1018.75 799.569 1008.82 800.143 1003.26 794.386Z" stroke="#47B5FF" strokewidth="3"/>
<path d="M1107.75 546.208L1099.61 554.065L1098.35 552.761L1100.19 543.533L1100.12 543.466L1094.56 548.837L1093.15 547.376L1101.29 539.519L1102.57 540.846L1100.7 550.051L1100.78 550.13L1106.35 544.758L1107.75 546.208ZM1102.44 553.562C1103.82 552.239 1105.32 552.983 1106.48 554.054C1106.91 554.448 1107.81 555.276 1108.08 555.53L1108.56 555.063C1109.17 554.477 1109.14 553.747 1108.45 553.039C1107.83 552.398 1107.16 552.287 1106.62 552.598L1105.28 551.215C1106.41 550.318 1108.1 550.491 1109.58 552.02C1110.69 553.178 1111.51 554.972 1109.88 556.545L1105.8 560.484L1104.48 559.113L1105.32 558.299L1105.28 558.254C1104.5 558.483 1103.5 558.344 1102.57 557.388C1101.45 556.219 1101.24 554.724 1102.44 553.562ZM1103.79 554.934C1103.26 555.444 1103.4 556.132 1103.99 556.739C1104.83 557.605 1105.94 557.613 1106.63 556.952L1107.13 556.463L1105.74 555.201C1105.02 554.569 1104.33 554.414 1103.79 554.934ZM1108.75 568.128L1112.01 564.981L1111.96 564.925C1111.29 565.134 1110.2 565.269 1109.18 564.213C1107.79 562.774 1107.9 560.588 1109.91 558.645C1111.95 556.681 1114.12 556.731 1115.49 558.147C1116.53 559.226 1116.33 560.295 1116.09 560.931L1116.17 561.01L1117.17 560.044L1118.53 561.45L1110.13 569.556L1108.75 568.128ZM1110.74 563.467C1111.63 564.389 1112.94 564.146 1114.13 562.996C1115.31 561.857 1115.59 560.591 1114.69 559.658C1113.77 558.702 1112.47 559 1111.33 560.096C1110.18 561.213 1109.83 562.522 1110.74 563.467ZM1120.08 570.152L1123.63 566.733L1125 568.161L1118.9 574.053L1117.57 572.671L1118.64 571.629L1118.58 571.561C1117.63 571.932 1116.53 571.757 1115.65 570.847C1114.49 569.644 1114.52 568.009 1115.97 566.587L1119.86 562.832L1121.25 564.271L1117.58 567.809C1116.81 568.558 1116.76 569.496 1117.43 570.193C1118.04 570.823 1119.15 571.052 1120.08 570.152ZM1121.67 573.484C1123.04 572.16 1124.54 572.905 1125.71 573.975C1126.14 574.369 1127.04 575.198 1127.31 575.451L1127.79 574.984C1128.4 574.398 1128.37 573.668 1127.68 572.96C1127.06 572.319 1126.39 572.208 1125.84 572.519L1124.51 571.136C1125.64 570.239 1127.33 570.412 1128.8 571.941C1129.92 573.099 1130.74 574.893 1129.11 576.466L1125.03 580.405L1123.71 579.034L1124.55 578.22L1124.51 578.175C1123.73 578.404 1122.73 578.265 1121.8 577.309C1120.68 576.14 1120.47 574.645 1121.67 573.484ZM1123.02 574.856C1122.49 575.366 1122.63 576.053 1123.22 576.66C1124.05 577.526 1125.17 577.535 1125.86 576.873L1126.36 576.384L1124.97 575.122C1124.25 574.491 1123.56 574.335 1123.02 574.856ZM1126.33 581.754L1132.44 575.862L1133.78 577.256L1132.77 578.233L1132.84 578.3C1133.74 577.841 1134.72 578.046 1135.39 578.743C1135.54 578.901 1135.75 579.136 1135.86 579.293L1134.53 580.573C1134.46 580.406 1134.21 580.059 1133.98 579.823C1133.21 579.025 1132.1 578.972 1131.32 579.721L1127.72 583.193L1126.33 581.754ZM1130.52 586.094L1136.63 580.202L1138.02 581.641L1131.91 587.533L1130.52 586.094ZM1138.2 580.097C1137.76 579.647 1137.74 578.928 1138.18 578.505C1138.61 578.093 1139.33 578.139 1139.76 578.588C1140.2 579.049 1140.21 579.757 1139.79 580.169C1139.35 580.592 1138.64 580.558 1138.2 580.097ZM1139.56 590.331L1143.1 586.913L1144.48 588.341L1138.38 594.233L1137.04 592.85L1138.12 591.809L1138.06 591.741C1137.11 592.111 1136.01 591.937 1135.13 591.026C1133.97 589.824 1134 588.189 1135.45 586.767L1139.34 583.012L1140.73 584.451L1137.06 587.989C1136.29 588.737 1136.24 589.676 1136.91 590.373C1137.52 591.002 1138.63 591.232 1139.56 590.331ZM1139.7 595.605L1145.81 589.713L1147.13 591.084L1146.1 592.082L1146.17 592.161C1147.11 591.736 1148.12 591.952 1148.9 592.762C1149.7 593.594 1149.85 594.58 1149.38 595.489L1149.45 595.556C1150.38 595.175 1151.47 595.426 1152.33 596.314C1153.41 597.427 1153.45 598.909 1152.08 600.222L1147.98 604.183L1146.6 602.755L1150.48 599.011C1151.25 598.273 1151.14 597.487 1150.57 596.902C1149.89 596.194 1149.02 596.256 1148.33 596.918L1144.52 600.596L1143.17 599.202L1147.11 595.404C1147.74 594.797 1147.74 593.968 1147.16 593.361C1146.56 592.743 1145.57 592.725 1144.8 593.463L1141.09 597.044L1139.7 595.605Z" fill="#84CFF4"/>
<path d="M951.027 697.48L942.887 705.336L941.628 704.032L943.471 694.805L943.406 694.737L937.841 700.109L936.431 698.647L944.57 690.791L945.85 692.117L943.986 701.322L944.062 701.401L949.627 696.03L951.027 697.48ZM945.725 704.834C947.096 703.51 948.597 704.255 949.761 705.325C950.196 705.72 951.093 706.548 951.359 706.801L951.842 706.334C952.449 705.749 952.418 705.019 951.734 704.31C951.116 703.67 950.444 703.558 949.897 703.869L948.562 702.486C949.694 701.589 951.382 701.763 952.858 703.292C953.975 704.449 954.794 706.243 953.164 707.817L949.083 711.756L947.759 710.384L948.603 709.57L948.559 709.525C947.782 709.755 946.779 709.615 945.856 708.66C944.728 707.49 944.522 705.995 945.725 704.834ZM947.071 706.206C946.543 706.716 946.685 707.404 947.271 708.011C948.107 708.876 949.223 708.885 949.908 708.223L950.414 707.735L949.022 706.472C948.304 705.841 947.611 705.685 947.071 706.206ZM952.031 719.399L955.291 716.252L955.237 716.196C954.57 716.405 953.485 716.541 952.465 715.484C951.076 714.045 951.181 711.859 953.193 709.917C955.228 707.952 957.404 708.002 958.772 709.419C959.813 710.498 959.607 711.566 959.374 712.203L959.45 712.282L960.451 711.316L961.807 712.721L953.409 720.827L952.031 719.399ZM954.025 714.738C954.915 715.66 956.223 715.418 957.415 714.268C958.595 713.128 958.872 711.862 957.971 710.929C957.049 709.974 955.751 710.271 954.615 711.367C953.457 712.485 953.114 713.794 954.025 714.738ZM963.366 721.423L966.907 718.005L968.286 719.433L962.181 725.325L960.846 723.942L961.926 722.9L961.86 722.833C960.915 723.203 959.813 723.029 958.934 722.118C957.773 720.915 957.801 719.28 959.252 717.858L963.142 714.104L964.531 715.543L960.866 719.08C960.09 719.829 960.04 720.768 960.713 721.465C961.321 722.094 962.433 722.324 963.366 721.423ZM964.954 724.755C966.325 723.431 967.826 724.176 968.989 725.246C969.424 725.641 970.321 726.469 970.588 726.722L971.071 726.256C971.678 725.67 971.647 724.94 970.963 724.232C970.345 723.591 969.673 723.479 969.126 723.79L967.791 722.407C968.923 721.51 970.61 721.684 972.086 723.213C973.204 724.371 974.023 726.164 972.393 727.738L968.312 731.677L966.988 730.305L967.831 729.491L967.788 729.446C967.01 729.676 966.007 729.536 965.085 728.581C963.956 727.412 963.751 725.916 964.954 724.755ZM966.3 726.127C965.771 726.637 965.914 727.325 966.5 727.932C967.335 728.798 968.451 728.806 969.137 728.144L969.643 727.656L968.251 726.394C967.533 725.762 966.839 725.606 966.3 726.127ZM969.614 733.026L975.719 727.134L977.064 728.528L976.052 729.504L976.118 729.572C977.021 729.112 978.001 729.318 978.673 730.015C978.825 730.172 979.031 730.408 979.139 730.564L977.812 731.845C977.738 731.678 977.49 731.331 977.262 731.095C976.492 730.297 975.376 730.244 974.601 730.992L971.003 734.465L969.614 733.026ZM973.803 737.365L979.907 731.473L981.296 732.912L975.192 738.804L973.803 737.365ZM981.478 731.368C981.044 730.919 981.024 730.2 981.462 729.777C981.89 729.364 982.607 729.41 983.041 729.86C983.486 730.321 983.496 731.028 983.068 731.441C982.63 731.864 981.923 731.829 981.478 731.368ZM982.844 741.603L986.386 738.185L987.764 739.612L981.659 745.505L980.325 744.122L981.404 743.08L981.339 743.013C980.393 743.383 979.291 743.209 978.412 742.298C977.251 741.095 977.28 739.46 978.73 738.038L982.62 734.284L984.009 735.723L980.344 739.26C979.569 740.009 979.519 740.947 980.192 741.644C980.799 742.274 981.911 742.504 982.844 741.603ZM982.983 746.876L989.088 740.984L990.412 742.356L989.377 743.354L989.453 743.433C990.389 743.007 991.402 743.224 992.183 744.033C992.986 744.865 993.134 745.851 992.665 746.76L992.73 746.828C993.665 746.446 994.755 746.698 995.612 747.586C996.686 748.699 996.726 750.18 995.366 751.493L991.263 755.454L989.885 754.026L993.763 750.283C994.528 749.545 994.42 748.758 993.856 748.174C993.172 747.465 992.298 747.527 991.612 748.189L987.801 751.868L986.456 750.474L990.39 746.676C991.02 746.068 991.024 745.239 990.438 744.632C989.841 744.014 988.847 743.996 988.082 744.734L984.372 748.315L982.983 746.876Z" fill="#84CFF4"/>
<path d="M1021.49 586.117L1013.63 577.978L1014.94 576.719L1024.16 578.562L1024.23 578.497L1018.86 572.932L1020.32 571.521L1028.18 579.661L1026.85 580.941L1017.65 579.077L1017.57 579.153L1022.94 584.718L1021.49 586.117ZM1014.13 580.816C1015.46 582.187 1014.71 583.688 1013.64 584.851C1013.25 585.286 1012.42 586.183 1012.17 586.45L1012.63 586.933C1013.22 587.54 1013.95 587.509 1014.66 586.825C1015.3 586.207 1015.41 585.535 1015.1 584.988L1016.48 583.653C1017.38 584.785 1017.21 586.473 1015.68 587.948C1014.52 589.066 1012.73 589.885 1011.15 588.255L1007.21 584.174L1008.58 582.85L1009.4 583.693L1009.44 583.65C1009.21 582.872 1009.35 581.869 1010.31 580.947C1011.48 579.818 1012.97 579.613 1014.13 580.816ZM1012.76 582.162C1012.25 581.633 1011.57 581.776 1010.96 582.362C1010.09 583.197 1010.08 584.313 1010.75 584.999L1011.23 585.505L1012.5 584.113C1013.13 583.395 1013.28 582.701 1012.76 582.162ZM999.569 587.122L1002.72 590.382L1002.77 590.328C1002.56 589.661 1002.43 588.576 1003.48 587.556C1004.92 586.167 1007.11 586.272 1009.05 588.284C1011.02 590.319 1010.97 592.495 1009.55 593.862C1008.47 594.904 1007.4 594.697 1006.77 594.465L1006.69 594.541L1007.65 595.542L1006.25 596.898L998.142 588.5L999.569 587.122ZM1004.23 589.116C1003.31 590.006 1003.55 591.314 1004.7 592.506C1005.84 593.686 1007.11 593.963 1008.04 593.062C1009 592.14 1008.7 590.842 1007.6 589.706C1006.48 588.548 1005.17 588.205 1004.23 589.116ZM997.546 598.457L1000.96 601.998L999.536 603.376L993.644 597.272L995.027 595.937L996.068 597.016L996.136 596.951C995.766 596.005 995.94 594.903 996.851 594.024C998.053 592.863 999.688 592.892 1001.11 594.343L1004.86 598.233L1003.43 599.622L999.888 595.957C999.14 595.181 998.201 595.131 997.504 595.804C996.875 596.412 996.645 597.524 997.546 598.457ZM994.214 600.044C995.537 601.416 994.793 602.917 993.722 604.08C993.328 604.515 992.5 605.412 992.246 605.678L992.713 606.162C993.299 606.769 994.029 606.738 994.737 606.054C995.378 605.435 995.489 604.763 995.178 604.216L996.561 602.882C997.458 604.014 997.285 605.701 995.756 607.177C994.598 608.295 992.804 609.114 991.231 607.484L987.292 603.403L988.663 602.079L989.477 602.922L989.522 602.879C989.293 602.101 989.432 601.098 990.388 600.176C991.557 599.047 993.052 598.842 994.214 600.044ZM992.842 601.39C992.332 600.862 991.644 601.005 991.037 601.591C990.171 602.426 990.163 603.542 990.824 604.228L991.313 604.734L992.575 603.342C993.207 602.623 993.362 601.93 992.842 601.39ZM985.943 604.705L991.835 610.81L990.441 612.155L989.465 611.143L989.397 611.208C989.856 612.112 989.651 613.091 988.954 613.764C988.797 613.916 988.561 614.122 988.404 614.23L987.124 612.903C987.291 612.829 987.638 612.581 987.874 612.353C988.672 611.582 988.725 610.467 987.976 609.691L984.504 606.094L985.943 604.705ZM981.603 608.894L987.496 614.998L986.057 616.387L980.164 610.283L981.603 608.894ZM987.6 616.569C988.05 616.135 988.769 616.115 989.192 616.553C989.604 616.98 989.559 617.698 989.109 618.132C988.648 618.577 987.941 618.586 987.528 618.159C987.105 617.721 987.14 617.014 987.6 616.569ZM977.366 617.935L980.784 621.476L979.356 622.855L973.464 616.75L974.847 615.415L975.889 616.495L975.956 616.429C975.586 615.484 975.76 614.382 976.671 613.503C977.874 612.342 979.509 612.371 980.931 613.821L984.685 617.711L983.246 619.1L979.709 615.435C978.96 614.659 978.021 614.61 977.324 615.282C976.695 615.89 976.465 617.002 977.366 617.935ZM972.092 618.074L977.985 624.178L976.613 625.502L975.615 624.468L975.536 624.544C975.962 625.48 975.745 626.493 974.935 627.274C974.103 628.077 973.117 628.225 972.208 627.756L972.141 627.821C972.522 628.756 972.271 629.846 971.383 630.703C970.27 631.777 968.788 631.817 967.475 630.457L963.515 626.354L964.942 624.975L968.686 628.854C969.424 629.618 970.21 629.511 970.795 628.947C971.503 628.263 971.441 627.389 970.78 626.703L967.101 622.892L968.495 621.546L972.293 625.481C972.901 626.111 973.729 626.114 974.336 625.528C974.955 624.932 974.972 623.937 974.234 623.173L970.653 619.463L972.092 618.074Z" fill="#84CFF4"/>
<path d="M1059.92 712.378L1067.77 720.517L1066.47 721.776L1057.24 719.933L1057.17 719.998L1062.55 725.563L1061.08 726.974L1053.23 718.834L1054.55 717.554L1063.76 719.418L1063.84 719.342L1058.47 713.778L1059.92 712.378ZM1067.27 717.679C1065.95 716.308 1066.69 714.807 1067.76 713.644C1068.16 713.209 1068.99 712.312 1069.24 712.045L1068.77 711.562C1068.19 710.955 1067.46 710.986 1066.75 711.67C1066.11 712.288 1066 712.96 1066.31 713.507L1064.92 714.842C1064.03 713.71 1064.2 712.023 1065.73 710.547C1066.89 709.429 1068.68 708.61 1070.25 710.24L1074.19 714.321L1072.82 715.645L1072.01 714.802L1071.96 714.845C1072.19 715.623 1072.05 716.626 1071.1 717.548C1069.93 718.677 1068.43 718.882 1067.27 717.679ZM1068.64 716.333C1069.15 716.862 1069.84 716.719 1070.45 716.133C1071.31 715.298 1071.32 714.182 1070.66 713.496L1070.17 712.99L1068.91 714.382C1068.28 715.1 1068.12 715.794 1068.64 716.333ZM1081.84 711.373L1078.69 708.113L1078.63 708.167C1078.84 708.834 1078.98 709.919 1077.92 710.939C1076.48 712.328 1074.3 712.223 1072.35 710.211C1070.39 708.176 1070.44 706 1071.86 704.633C1072.94 703.591 1074 703.798 1074.64 704.03L1074.72 703.954L1073.75 702.954L1075.16 701.597L1083.26 709.995L1081.84 711.373ZM1077.18 709.379C1078.1 708.489 1077.86 707.181 1076.71 705.989C1075.57 704.809 1074.3 704.532 1073.37 705.433C1072.41 706.355 1072.71 707.653 1073.8 708.789C1074.92 709.947 1076.23 710.291 1077.18 709.379ZM1083.86 700.038L1080.44 696.497L1081.87 695.119L1087.76 701.223L1086.38 702.558L1085.34 701.479L1085.27 701.544C1085.64 702.49 1085.47 703.592 1084.56 704.471C1083.35 705.632 1081.72 705.603 1080.3 704.152L1076.54 700.262L1077.98 698.873L1081.52 702.538C1082.27 703.314 1083.21 703.364 1083.9 702.691C1084.53 702.083 1084.76 700.971 1083.86 700.038ZM1087.19 698.451C1085.87 697.079 1086.61 695.578 1087.68 694.415C1088.08 693.98 1088.91 693.083 1089.16 692.817L1088.69 692.333C1088.11 691.726 1087.38 691.757 1086.67 692.441C1086.03 693.06 1085.92 693.732 1086.23 694.279L1084.84 695.613C1083.95 694.481 1084.12 692.794 1085.65 691.318C1086.81 690.2 1088.6 689.381 1090.18 691.011L1094.11 695.092L1092.74 696.416L1091.93 695.573L1091.88 695.616C1092.11 696.394 1091.97 697.397 1091.02 698.319C1089.85 699.448 1088.35 699.654 1087.19 698.451ZM1088.56 697.105C1089.07 697.633 1089.76 697.491 1090.37 696.905C1091.24 696.069 1091.24 694.953 1090.58 694.267L1090.09 693.761L1088.83 695.154C1088.2 695.872 1088.04 696.565 1088.56 697.105ZM1095.46 693.79L1089.57 687.686L1090.97 686.34L1091.94 687.352L1092.01 687.287C1091.55 686.384 1091.76 685.404 1092.45 684.731C1092.61 684.579 1092.85 684.373 1093 684.265L1094.28 685.592C1094.12 685.666 1093.77 685.914 1093.53 686.142C1092.73 686.913 1092.68 688.028 1093.43 688.804L1096.9 692.401L1095.46 693.79ZM1099.8 689.601L1093.91 683.497L1095.35 682.108L1101.24 688.212L1099.8 689.601ZM1093.81 681.926C1093.36 682.36 1092.64 682.38 1092.21 681.942C1091.8 681.515 1091.85 680.797 1092.3 680.363C1092.76 679.918 1093.47 679.909 1093.88 680.336C1094.3 680.774 1094.27 681.481 1093.81 681.926ZM1104.04 680.56L1100.62 677.019L1102.05 675.641L1107.94 681.745L1106.56 683.08L1105.52 682.001L1105.45 682.066C1105.82 683.011 1105.65 684.113 1104.74 684.992C1103.53 686.153 1101.9 686.125 1100.48 684.674L1096.72 680.784L1098.16 679.395L1101.7 683.06C1102.45 683.836 1103.38 683.886 1104.08 683.213C1104.71 682.605 1104.94 681.493 1104.04 680.56ZM1109.31 680.421L1103.42 674.317L1104.79 672.993L1105.79 674.027L1105.87 673.951C1105.44 673.015 1105.66 672.003 1106.47 671.221C1107.3 670.418 1108.29 670.27 1109.2 670.739L1109.27 670.674C1108.88 669.739 1109.14 668.649 1110.02 667.792C1111.14 666.718 1112.62 666.678 1113.93 668.038L1117.89 672.142L1116.46 673.52L1112.72 669.641C1111.98 668.877 1111.2 668.984 1110.61 669.549C1109.9 670.232 1109.96 671.106 1110.63 671.792L1114.31 675.603L1112.91 676.949L1109.11 673.014C1108.51 672.384 1107.68 672.381 1107.07 672.967C1106.45 673.564 1106.43 674.558 1107.17 675.322L1110.75 679.032L1109.31 680.421Z" fill="#84CFF4"/>
</g>
<defs>
<filter id="filter0_dg_261_690" x="865.338" y="475.527" width="346.863" height="346.15" filterUnits="userSpaceOnUse" color-interpolation-filters="sRGB">
<feFlood flood-opacity="0" result="BackgroundImageFix"/>
<feColorMatrix in="SourceAlpha" type="matrix" values="0 0 0 0 0 0 0 0 0 0 0 0 0 0 0 0 0 0 127 0" result="hardAlpha"/>
<feOffset dy="4"/>
<feGaussianBlur stdDeviation="2"/>
<feComposite in2="hardAlpha" operator="out"/>
<feColorMatrix type="matrix" values="0 0 0 0 0 0 0 0 0 0 0 0 0 0 0 0 0 0 0.25 0"/>
<feBlend mode="normal" in2="BackgroundImageFix" result="effect1_dropShadow_261_690"/>
<feBlend mode="normal" in="SourceGraphic" in2="effect1_dropShadow_261_690" result="shape"/>
<feTurbulence type="fractalNoise" baseFrequency="2 2" numOctaves="3" seed="5662" />
<feDisplacementMap in="shape" scale="13.800000190734863" xChannelSelector="R" yChannelSelector="G" result="displacedImage" width="100%" height="100%" />
<feMerge result="effect2_texture_261_690">
<feMergeNode in="displacedImage"/>
</feMerge>
</filter>
<clipPath id="clip0_261_690">
<rect width="1440" height="1024" fill="white"/>
</clipPath>
</defs>
  </svg>