<svg width="1440" height="1024" viewBox="0 0 1440 1024" fill="none" xmlns="http://www.w3.org/2000/svg">
  <g clippath="url(#clip0_85_211)">
<rect width="1440" height="1024" fill="#9DD6FD"/>
<rect width="1440" height="1024" fill="#9DD6FD"/>
<mask id="mask0_85_211" style="masktype:luminance" maskUnits="userSpaceOnUse" x="23" y="15" width="260" height="119">
<path d="M283 15H23V133.354H283V15Z" fill="white"/>
</mask>
<g mask="url(#mask0_85_211)">
<path d="M253.754 82.2191C253.754 82.2191 252.173 78.6674 248.728 73.2116C242.008 62.579 233.603 52.9624 223.8 44.69C209.584 32.6496 192.434 24.0508 173.848 19.6452C147.712 13.5152 120.383 16.0353 94.6559 23.0209C90.5276 24.1422 86.1423 25.6433 81.8355 26.5811C77.457 27.5352 72.912 27.0879 68.5953 28.1792C65.1808 29.042 62.3 31.1967 59.3513 33.0737C52.9725 37.1344 46.8592 41.7072 41.4201 47.0446C35.6266 52.7292 30.6094 59.3805 27.2809 66.9173C25.9093 70.0232 23.6703 73.8576 24.3857 77.3809C26.1498 86.0622 39.0166 88.9424 45.8915 90.9832C56.0396 93.9953 66.5884 95.5443 77.0762 96.6102C87.4046 97.6587 97.7832 98.1576 108.157 98.3559C108.157 98.3559 158.033 99.9182 198.337 83.7816C198.337 83.7816 226.046 78.0555 240.656 86.9055C252.816 107.114 265.882 121.992 280.066 130.266C277.283 124.711 274.197 119.248 272.319 113.27C270.473 107.389 271.835 101.095 270.38 95.1496C269.6 91.9618 265.215 89.4414 267.813 85.9001C269.132 84.1011 272.424 79.6174 274.914 79.6174C274.914 79.6174 267.38 73.2129 248.728 73.2129" stroke="#E2F4F9" strokewidth="3" strokelinecap="round"/>
<path d="M122.769 83.0859C130.032 89.713 136.973 102.503 130.602 112.181C128.809 114.904 125.328 113.003 123.236 111.751C113.998 106.228 107.502 95.3173 102.113 86.2092" stroke="#E2F4F9" strokewidth="3" strokelinecap="round"/>
<path d="M26.1861 80.4565C25.3964 83.9544 33.4615 61.9034 45.3694 66.6849C53.2261 69.839 66.5254 88.6389 79.965 78.5414" stroke="#E2F4F9" strokewidth="3" strokelinecap="round"/>
<path d="M97.8519 66.0039C97.8519 67.3055 95.8476 68.3603 93.3748 68.3603C90.902 68.3603 88.8984 67.3055 88.8984 66.0039C88.8984 64.7023 90.9027 63.6475 93.3748 63.6475C95.8469 63.6475 97.8519 64.7023 97.8519 66.0039Z" fill="#FFFDFE"/>
</g>
<path d="M103.864 144.249C102.024 142.121 100.064 139.945 97.984 137.721C95.904 135.481 93.824 133.257 91.744 131.049C91.728 131.497 91.712 132.097 91.696 132.849C91.68 133.601 91.672 134.625 91.672 135.921C91.672 136.257 91.672 136.673 91.672 137.169C91.688 137.665 91.696 138.185 91.696 138.729C91.712 139.273 91.728 139.825 91.744 140.385C91.76 140.945 91.776 141.465 91.792 141.945C91.808 142.425 91.824 142.849 91.84 143.217C91.856 143.569 91.872 143.809 91.888 143.937C91.632 143.905 91.352 143.889 91.048 143.889C90.728 143.889 90.432 143.905 90.16 143.937C90.192 143.777 90.224 143.481 90.256 143.049C90.304 142.617 90.344 142.105 90.376 141.513C90.408 140.905 90.44 140.249 90.472 139.545C90.52 138.841 90.552 138.137 90.568 137.433C90.6 136.729 90.624 136.041 90.64 135.369C90.656 134.697 90.664 134.097 90.664 133.569C90.664 132.033 90.656 130.713 90.64 129.609C90.64 128.505 90.624 127.681 90.592 127.137H90.976C91.952 128.193 92.992 129.329 94.096 130.545C95.216 131.745 96.32 132.937 97.408 134.121C98.512 135.289 99.552 136.401 100.528 137.457C101.52 138.497 102.384 139.385 103.12 140.121V136.857C103.12 135.177 103.104 133.545 103.072 131.961C103.056 130.361 103.008 128.857 102.928 127.449C103.248 127.529 103.52 127.569 103.744 127.569C103.936 127.569 104.192 127.529 104.512 127.449C104.48 127.801 104.44 128.329 104.392 129.033C104.36 129.737 104.32 130.489 104.272 131.289C104.24 132.089 104.208 132.873 104.176 133.641C104.144 134.409 104.128 135.025 104.128 135.489C104.128 135.889 104.128 136.369 104.128 136.929C104.128 137.473 104.128 138.041 104.128 138.633C104.144 139.225 104.152 139.825 104.152 140.433C104.168 141.025 104.176 141.585 104.176 142.113C104.192 142.625 104.2 143.073 104.2 143.457C104.2 143.809 104.2 144.073 104.2 144.249H103.864ZM114.672 137.961C114.4 138.057 114.08 138.137 113.712 138.201C113.36 138.265 113 138.337 112.632 138.417C112.264 138.481 111.896 138.569 111.528 138.681C111.176 138.793 110.856 138.945 110.568 139.137C110.296 139.329 110.072 139.569 109.896 139.857C109.736 140.145 109.656 140.513 109.656 140.961C109.656 141.713 109.872 142.281 110.304 142.665C110.736 143.049 111.216 143.241 111.744 143.241C112.352 143.241 112.904 143.073 113.4 142.737C113.912 142.401 114.304 142.009 114.576 141.561L114.672 137.961ZM108.744 133.689C109.464 133.145 110.128 132.777 110.736 132.585C111.344 132.393 111.968 132.297 112.608 132.297C113.184 132.297 113.712 132.385 114.192 132.561C114.672 132.721 115.08 132.961 115.416 133.281C115.752 133.585 116.016 133.961 116.208 134.409C116.4 134.841 116.496 135.321 116.496 135.849C116.496 136.761 116.48 137.673 116.448 138.585C116.416 139.481 116.4 140.433 116.4 141.441C116.4 141.633 116.4 141.841 116.4 142.065C116.416 142.273 116.456 142.465 116.52 142.641C116.584 142.801 116.672 142.937 116.784 143.049C116.912 143.161 117.096 143.217 117.336 143.217C117.416 143.217 117.496 143.217 117.576 143.217C117.672 143.201 117.76 143.169 117.84 143.121V143.649C117.664 143.729 117.44 143.793 117.168 143.841C116.912 143.889 116.624 143.913 116.304 143.913C115.792 143.913 115.4 143.785 115.128 143.529C114.856 143.257 114.696 142.913 114.648 142.497C114.072 143.073 113.504 143.497 112.944 143.769C112.384 144.041 111.696 144.177 110.88 144.177C110.48 144.177 110.088 144.121 109.704 144.009C109.32 143.897 108.976 143.713 108.672 143.457C108.384 143.201 108.144 142.897 107.952 142.545C107.776 142.177 107.688 141.761 107.688 141.297C107.688 140.337 107.984 139.593 108.576 139.065C109.184 138.537 110.016 138.185 111.072 138.009C111.936 137.865 112.608 137.745 113.088 137.649C113.584 137.537 113.944 137.425 114.168 137.313C114.408 137.201 114.552 137.073 114.6 136.929C114.648 136.769 114.672 136.569 114.672 136.329C114.672 135.929 114.624 135.545 114.528 135.177C114.432 134.809 114.28 134.489 114.072 134.217C113.864 133.945 113.592 133.729 113.256 133.569C112.92 133.393 112.512 133.305 112.032 133.305C111.392 133.305 110.792 133.449 110.232 133.737C109.688 134.025 109.28 134.425 109.008 134.937H108.744V133.689ZM130.464 143.409C130.464 143.921 130.464 144.489 130.464 145.113C130.48 145.753 130.496 146.385 130.512 147.009C130.528 147.633 130.544 148.225 130.56 148.785C130.592 149.361 130.624 149.849 130.656 150.249C130.208 150.169 129.848 150.129 129.576 150.129C129.304 150.129 128.944 150.169 128.496 150.249C128.528 149.849 128.552 149.361 128.568 148.785C128.6 148.225 128.624 147.633 128.64 147.009C128.656 146.385 128.664 145.753 128.664 145.113C128.68 144.489 128.688 143.921 128.688 143.409V141.609H128.64C128.176 142.521 127.6 143.177 126.912 143.577C126.24 143.977 125.512 144.177 124.728 144.177C124.136 144.177 123.536 144.081 122.928 143.889C122.336 143.713 121.8 143.401 121.32 142.953C120.84 142.489 120.448 141.881 120.144 141.129C119.84 140.377 119.688 139.449 119.688 138.345C119.688 137.289 119.84 136.385 120.144 135.633C120.448 134.865 120.84 134.241 121.32 133.761C121.8 133.265 122.336 132.897 122.928 132.657C123.536 132.417 124.136 132.297 124.728 132.297C125.816 132.297 126.672 132.545 127.296 133.041C127.92 133.537 128.368 134.153 128.64 134.889H128.688C128.688 134.505 128.672 134.121 128.64 133.737C128.608 133.353 128.56 132.953 128.496 132.537C128.944 132.617 129.304 132.657 129.576 132.657C129.848 132.657 130.208 132.617 130.656 132.537C130.624 132.953 130.592 133.449 130.56 134.025C130.544 134.601 130.528 135.209 130.512 135.849C130.496 136.473 130.48 137.105 130.464 137.745C130.464 138.385 130.464 138.977 130.464 139.521V143.409ZM128.688 138.033C128.688 137.425 128.624 136.841 128.496 136.281C128.368 135.705 128.16 135.201 127.872 134.769C127.6 134.321 127.248 133.969 126.816 133.713C126.384 133.441 125.856 133.305 125.232 133.305C124.848 133.305 124.448 133.385 124.032 133.545C123.632 133.689 123.264 133.961 122.928 134.361C122.592 134.745 122.32 135.273 122.112 135.945C121.904 136.617 121.8 137.481 121.8 138.537C121.8 139.225 121.864 139.865 121.992 140.457C122.136 141.033 122.336 141.537 122.592 141.969C122.864 142.401 123.2 142.745 123.6 143.001C124.016 143.241 124.488 143.361 125.016 143.361C125.624 143.361 126.152 143.209 126.6 142.905C127.064 142.601 127.448 142.201 127.752 141.705C128.072 141.193 128.304 140.617 128.448 139.977C128.608 139.337 128.688 138.689 128.688 138.033ZM133.84 140.313C133.84 139.465 133.848 138.745 133.864 138.153C133.896 137.545 133.912 136.945 133.912 136.353C133.912 135.793 133.904 135.185 133.888 134.529C133.888 133.873 133.88 133.209 133.864 132.537C134.264 132.617 134.6 132.657 134.872 132.657C135.128 132.657 135.456 132.617 135.856 132.537C135.776 133.497 135.712 134.553 135.664 135.705C135.632 136.841 135.616 138.009 135.616 139.209C135.616 140.041 135.688 140.681 135.832 141.129C135.976 141.561 136.152 141.889 136.36 142.113C136.584 142.369 136.864 142.585 137.2 142.761C137.552 142.921 137.96 143.001 138.424 143.001C139.096 143.001 139.656 142.857 140.104 142.569C140.552 142.265 140.88 141.897 141.088 141.465C141.2 141.193 141.288 140.961 141.352 140.769C141.416 140.577 141.464 140.321 141.496 140.001C141.544 139.681 141.568 139.249 141.568 138.705C141.584 138.161 141.592 137.417 141.592 136.473V134.457C141.592 134.105 141.584 133.769 141.568 133.449C141.568 133.129 141.56 132.825 141.544 132.537C141.72 132.569 141.888 132.601 142.048 132.633C142.208 132.649 142.376 132.657 142.552 132.657C142.728 132.657 142.896 132.649 143.056 132.633C143.216 132.601 143.376 132.569 143.536 132.537C143.456 133.785 143.408 134.993 143.392 136.161C143.376 137.313 143.368 138.537 143.368 139.833C143.368 140.553 143.376 141.257 143.392 141.945C143.408 142.633 143.432 143.297 143.464 143.937C143.144 143.905 142.832 143.889 142.528 143.889C142.224 143.889 141.912 143.905 141.592 143.937C141.608 143.793 141.616 143.641 141.616 143.481C141.632 143.321 141.64 143.153 141.64 142.977V141.945H141.592C141.176 142.713 140.64 143.281 139.984 143.649C139.328 144.001 138.616 144.177 137.848 144.177C136.6 144.177 135.616 143.849 134.896 143.193C134.192 142.521 133.84 141.561 133.84 140.313ZM153.344 137.961C153.072 138.057 152.752 138.137 152.384 138.201C152.032 138.265 151.672 138.337 151.304 138.417C150.936 138.481 150.568 138.569 150.2 138.681C149.848 138.793 149.528 138.945 149.24 139.137C148.968 139.329 148.744 139.569 148.568 139.857C148.408 140.145 148.328 140.513 148.328 140.961C148.328 141.713 148.544 142.281 148.976 142.665C149.408 143.049 149.888 143.241 150.416 143.241C151.024 143.241 151.576 143.073 152.072 142.737C152.584 142.401 152.976 142.009 153.248 141.561L153.344 137.961ZM147.416 133.689C148.136 133.145 148.8 132.777 149.408 132.585C150.016 132.393 150.64 132.297 151.28 132.297C151.856 132.297 152.384 132.385 152.864 132.561C153.344 132.721 153.752 132.961 154.088 133.281C154.424 133.585 154.688 133.961 154.88 134.409C155.072 134.841 155.168 135.321 155.168 135.849C155.168 136.761 155.152 137.673 155.12 138.585C155.088 139.481 155.072 140.433 155.072 141.441C155.072 141.633 155.072 141.841 155.072 142.065C155.088 142.273 155.128 142.465 155.192 142.641C155.256 142.801 155.344 142.937 155.456 143.049C155.584 143.161 155.768 143.217 156.008 143.217C156.088 143.217 156.168 143.217 156.248 143.217C156.344 143.201 156.432 143.169 156.512 143.121V143.649C156.336 143.729 156.112 143.793 155.84 143.841C155.584 143.889 155.296 143.913 154.976 143.913C154.464 143.913 154.072 143.785 153.8 143.529C153.528 143.257 153.368 142.913 153.32 142.497C152.744 143.073 152.176 143.497 151.616 143.769C151.056 144.041 150.368 144.177 149.552 144.177C149.152 144.177 148.76 144.121 148.376 144.009C147.992 143.897 147.648 143.713 147.344 143.457C147.056 143.201 146.816 142.897 146.624 142.545C146.448 142.177 146.36 141.761 146.36 141.297C146.36 140.337 146.656 139.593 147.248 139.065C147.856 138.537 148.688 138.185 149.744 138.009C150.608 137.865 151.28 137.745 151.76 137.649C152.256 137.537 152.616 137.425 152.84 137.313C153.08 137.201 153.224 137.073 153.272 136.929C153.32 136.769 153.344 136.569 153.344 136.329C153.344 135.929 153.296 135.545 153.2 135.177C153.104 134.809 152.952 134.489 152.744 134.217C152.536 133.945 152.264 133.729 151.928 133.569C151.592 133.393 151.184 133.305 150.704 133.305C150.064 133.305 149.464 133.449 148.904 133.737C148.36 134.025 147.952 134.425 147.68 134.937H147.416V133.689ZM164.672 134.505C164.592 134.409 164.432 134.321 164.192 134.241C163.968 134.161 163.736 134.121 163.496 134.121C163.112 134.121 162.768 134.209 162.464 134.385C162.16 134.561 161.904 134.801 161.696 135.105C161.488 135.393 161.328 135.745 161.216 136.161C161.104 136.561 161.048 136.993 161.048 137.457V140.097C161.048 141.169 161.048 141.993 161.048 142.569C161.064 143.129 161.096 143.585 161.144 143.937C160.824 143.905 160.504 143.889 160.184 143.889C159.832 143.889 159.496 143.905 159.176 143.937C159.224 143.393 159.248 142.657 159.248 141.729C159.264 140.785 159.272 139.633 159.272 138.273V137.505C159.272 136.881 159.264 136.161 159.248 135.345C159.248 134.529 159.224 133.593 159.176 132.537C159.352 132.569 159.52 132.601 159.68 132.633C159.84 132.649 160.008 132.657 160.184 132.657C160.328 132.657 160.48 132.649 160.64 132.633C160.8 132.601 160.968 132.569 161.144 132.537C161.08 133.113 161.04 133.569 161.024 133.905C161.024 134.241 161.024 134.561 161.024 134.865L161.072 134.889C162.016 133.161 163.072 132.297 164.24 132.297C164.384 132.297 164.504 132.305 164.6 132.321C164.712 132.337 164.848 132.377 165.008 132.441C164.928 132.633 164.88 132.929 164.864 133.329C164.848 133.713 164.84 134.065 164.84 134.385L164.672 134.505ZM167.456 128.361C167.456 128.025 167.576 127.737 167.816 127.497C168.056 127.257 168.344 127.137 168.68 127.137C169.016 127.137 169.304 127.257 169.544 127.497C169.784 127.737 169.904 128.025 169.904 128.361C169.904 128.697 169.784 128.985 169.544 129.225C169.304 129.465 169.016 129.585 168.68 129.585C168.344 129.585 168.056 129.465 167.816 129.225C167.576 128.985 167.456 128.697 167.456 128.361ZM167.792 137.025C167.792 136.305 167.776 135.553 167.744 134.769C167.728 133.969 167.68 133.225 167.6 132.537C168.048 132.617 168.408 132.657 168.68 132.657C168.952 132.657 169.312 132.617 169.76 132.537C169.68 133.225 169.624 133.969 169.592 134.769C169.576 135.553 169.568 136.305 169.568 137.025V139.521C169.568 140.241 169.576 141.001 169.592 141.801C169.624 142.585 169.68 143.297 169.76 143.937C169.392 143.905 169.032 143.889 168.68 143.889C168.328 143.889 167.968 143.905 167.6 143.937C167.68 143.297 167.728 142.585 167.744 141.801C167.776 141.001 167.792 140.241 167.792 139.521V137.025ZM173.847 140.313C173.847 139.465 173.855 138.745 173.871 138.153C173.903 137.545 173.919 136.945 173.919 136.353C173.919 135.793 173.911 135.185 173.895 134.529C173.895 133.873 173.887 133.209 173.871 132.537C174.271 132.617 174.607 132.657 174.879 132.657C175.135 132.657 175.463 132.617 175.863 132.537C175.783 133.497 175.719 134.553 175.671 135.705C175.639 136.841 175.623 138.009 175.623 139.209C175.623 140.041 175.695 140.681 175.839 141.129C175.983 141.561 176.159 141.889 176.367 142.113C176.591 142.369 176.871 142.585 177.207 142.761C177.559 142.921 177.967 143.001 178.431 143.001C179.103 143.001 179.663 142.857 180.111 142.569C180.559 142.265 180.887 141.897 181.095 141.465C181.207 141.193 181.295 140.961 181.359 140.769C181.423 140.577 181.471 140.321 181.503 140.001C181.551 139.681 181.575 139.249 181.575 138.705C181.591 138.161 181.599 137.417 181.599 136.473V134.457C181.599 134.105 181.591 133.769 181.575 133.449C181.575 133.129 181.567 132.825 181.551 132.537C181.727 132.569 181.895 132.601 182.055 132.633C182.215 132.649 182.383 132.657 182.559 132.657C182.735 132.657 182.903 132.649 183.063 132.633C183.223 132.601 183.383 132.569 183.543 132.537C183.463 133.785 183.415 134.993 183.399 136.161C183.383 137.313 183.375 138.537 183.375 139.833C183.375 140.553 183.383 141.257 183.399 141.945C183.415 142.633 183.439 143.297 183.471 143.937C183.151 143.905 182.839 143.889 182.535 143.889C182.231 143.889 181.919 143.905 181.599 143.937C181.615 143.793 181.623 143.641 181.623 143.481C181.639 143.321 181.647 143.153 181.647 142.977V141.945H181.599C181.183 142.713 180.647 143.281 179.991 143.649C179.335 144.001 178.623 144.177 177.855 144.177C176.607 144.177 175.623 143.849 174.903 143.193C174.199 142.521 173.847 141.561 173.847 140.313ZM187.231 137.025C187.231 136.305 187.215 135.553 187.183 134.769C187.167 133.969 187.119 133.225 187.039 132.537C187.487 132.617 187.847 132.657 188.119 132.657C188.247 132.657 188.383 132.649 188.527 132.633C188.687 132.601 188.871 132.569 189.079 132.537C189.031 133.177 189.007 133.817 189.007 134.457H189.055C189.903 133.017 191.095 132.297 192.631 132.297C193.031 132.297 193.423 132.361 193.807 132.489C194.191 132.601 194.535 132.761 194.839 132.969C195.159 133.177 195.431 133.433 195.655 133.737C195.879 134.025 196.031 134.337 196.111 134.673H196.159C196.543 133.905 197.063 133.321 197.719 132.921C198.391 132.505 199.159 132.297 200.023 132.297C200.551 132.297 201.039 132.369 201.487 132.513C201.935 132.657 202.319 132.881 202.639 133.185C202.975 133.489 203.231 133.881 203.407 134.361C203.599 134.841 203.695 135.417 203.695 136.089C203.695 136.361 203.687 136.657 203.671 136.977C203.655 137.297 203.639 137.673 203.623 138.105C203.607 138.521 203.591 139.001 203.575 139.545C203.559 140.073 203.551 140.689 203.551 141.393C203.551 141.825 203.551 142.241 203.551 142.641C203.567 143.041 203.591 143.473 203.623 143.937C203.447 143.905 203.271 143.889 203.095 143.889C202.919 143.889 202.751 143.889 202.591 143.889C202.415 143.889 202.239 143.889 202.063 143.889C201.887 143.889 201.711 143.905 201.535 143.937C201.583 143.537 201.631 142.729 201.679 141.513C201.743 140.297 201.775 138.601 201.775 136.425C201.775 136.025 201.727 135.649 201.631 135.297C201.551 134.945 201.415 134.641 201.223 134.385C201.031 134.129 200.775 133.929 200.455 133.785C200.135 133.625 199.735 133.545 199.255 133.545C198.679 133.545 198.191 133.657 197.791 133.881C197.391 134.105 197.079 134.369 196.855 134.673C196.727 134.849 196.623 135.025 196.543 135.201C196.479 135.377 196.423 135.649 196.375 136.017C196.343 136.369 196.319 136.873 196.303 137.529C196.287 138.169 196.279 139.057 196.279 140.193C196.279 140.881 196.287 141.513 196.303 142.089C196.335 142.649 196.367 143.265 196.399 143.937C196.031 143.905 195.679 143.889 195.343 143.889C195.007 143.889 194.655 143.905 194.287 143.937C194.367 143.057 194.423 142.161 194.455 141.249C194.487 140.337 194.503 139.441 194.503 138.561C194.503 137.809 194.495 137.225 194.479 136.809C194.479 136.377 194.463 136.041 194.431 135.801C194.399 135.545 194.351 135.337 194.287 135.177C194.239 135.017 194.167 134.841 194.071 134.649C193.895 134.345 193.615 134.089 193.231 133.881C192.863 133.657 192.479 133.545 192.079 133.545C191.023 133.545 190.247 133.889 189.751 134.577C189.255 135.265 189.007 136.233 189.007 137.481V139.521C189.007 140.241 189.015 141.001 189.031 141.801C189.063 142.585 189.119 143.297 189.199 143.937C188.831 143.905 188.471 143.889 188.119 143.889C187.767 143.889 187.407 143.905 187.039 143.937C187.119 143.297 187.167 142.585 187.183 141.801C187.215 141.001 187.231 140.241 187.231 139.521V137.025Z" fill="#E9F6F9"/>
<path d="M120.968 943.152H122.96V964.896H120.968V943.152ZM111.512 944.832C112.584 944.832 113.528 945.144 114.344 945.768C115.176 946.376 115.824 947.248 116.288 948.384C116.768 949.52 117.008 950.856 117.008 952.392C117.008 953.928 116.768 955.264 116.288 956.4C115.824 957.536 115.176 958.416 114.344 959.04C113.528 959.664 112.584 959.976 111.512 959.976C110.44 959.976 109.488 959.664 108.656 959.04C107.824 958.416 107.168 957.536 106.688 956.4C106.224 955.264 105.992 953.928 105.992 952.392C105.992 950.856 106.224 949.52 106.688 948.384C107.168 947.248 107.824 946.376 108.656 945.768C109.488 945.144 110.44 944.832 111.512 944.832ZM111.512 946.608C110.792 946.608 110.16 946.848 109.616 947.328C109.088 947.792 108.672 948.464 108.368 949.344C108.064 950.208 107.912 951.224 107.912 952.392C107.912 953.56 108.064 954.584 108.368 955.464C108.672 956.328 109.088 957 109.616 957.48C110.16 957.96 110.792 958.2 111.512 958.2C112.216 958.2 112.832 957.96 113.36 957.48C113.904 957 114.328 956.328 114.632 955.464C114.936 954.584 115.088 953.56 115.088 952.392C115.088 951.224 114.936 950.208 114.632 949.344C114.328 948.464 113.904 947.792 113.36 947.328C112.832 946.848 112.216 946.608 111.512 946.608ZM138.774 949.152H144.27V950.784H138.774V949.152ZM143.142 943.176H145.134V959.088H143.142V943.176ZM131.286 962.76H145.734V964.392H131.286V962.76ZM131.286 957.672H133.254V963.576H131.286V957.672ZM132.798 945.864H134.43V947.616C134.43 948.928 134.174 950.168 133.662 951.336C133.166 952.488 132.462 953.496 131.55 954.36C130.638 955.208 129.582 955.864 128.382 956.328L127.35 954.72C128.15 954.432 128.878 954.048 129.534 953.568C130.206 953.088 130.79 952.536 131.286 951.912C131.782 951.288 132.158 950.608 132.414 949.872C132.67 949.136 132.798 948.384 132.798 947.616V945.864ZM133.182 945.864H134.814V947.616C134.814 948.544 135.03 949.448 135.462 950.328C135.894 951.208 136.51 951.992 137.31 952.68C138.11 953.352 139.03 953.872 140.07 954.24L139.062 955.824C137.878 955.392 136.846 954.768 135.966 953.952C135.086 953.12 134.398 952.16 133.902 951.072C133.422 949.984 133.182 948.832 133.182 947.616V945.864ZM127.974 944.928H139.566V946.56H127.974V944.928ZM173.98 943.152H175.9V964.872H173.98V943.152ZM166.852 951.408H170.428V953.184H166.852V951.408ZM169.78 943.68H171.676V963.72H169.78V943.68ZM157.588 945.912H167.476V947.544H157.588V945.912ZM157.372 959.52L157.132 957.84C157.852 957.84 158.66 957.84 159.556 957.84C160.452 957.824 161.388 957.8 162.364 957.768C163.34 957.72 164.308 957.664 165.268 957.6C166.228 957.52 167.124 957.424 167.956 957.312L168.1 958.8C166.964 959.008 165.74 959.168 164.428 959.28C163.132 959.376 161.868 959.44 160.636 959.472C159.404 959.504 158.316 959.52 157.372 959.52ZM159.364 946.968H161.188V958.32H159.364V946.968ZM163.852 946.968H165.7V958.32H163.852V946.968ZM195.218 943.152H197.21V964.896H195.218V943.152ZM185.762 944.832C186.834 944.832 187.778 945.144 188.594 945.768C189.426 946.376 190.074 947.248 190.538 948.384C191.018 949.52 191.258 950.856 191.258 952.392C191.258 953.928 191.018 955.264 190.538 956.4C190.074 957.536 189.426 958.416 188.594 959.04C187.778 959.664 186.834 959.976 185.762 959.976C184.69 959.976 183.738 959.664 182.906 959.04C182.074 958.416 181.418 957.536 180.938 956.4C180.474 955.264 180.242 953.928 180.242 952.392C180.242 950.856 180.474 949.52 180.938 948.384C181.418 947.248 182.074 946.376 182.906 945.768C183.738 945.144 184.69 944.832 185.762 944.832ZM185.762 946.608C185.042 946.608 184.41 946.848 183.866 947.328C183.338 947.792 182.922 948.464 182.618 949.344C182.314 950.208 182.162 951.224 182.162 952.392C182.162 953.56 182.314 954.584 182.618 955.464C182.922 956.328 183.338 957 183.866 957.48C184.41 957.96 185.042 958.2 185.762 958.2C186.466 958.2 187.082 957.96 187.61 957.48C188.154 957 188.578 956.328 188.882 955.464C189.186 954.584 189.338 953.56 189.338 952.392C189.338 951.224 189.186 950.208 188.882 949.344C188.578 948.464 188.154 947.792 187.61 947.328C187.082 946.848 186.466 946.608 185.762 946.608ZM207.264 946.272H208.896V949.776C208.896 950.928 208.736 952.064 208.416 953.184C208.096 954.288 207.648 955.336 207.072 956.328C206.512 957.304 205.856 958.168 205.104 958.92C204.352 959.672 203.544 960.264 202.68 960.696L201.528 959.112C202.312 958.728 203.048 958.208 203.736 957.552C204.44 956.896 205.056 956.144 205.584 955.296C206.112 954.448 206.52 953.552 206.808 952.608C207.112 951.664 207.264 950.72 207.264 949.776V946.272ZM207.672 946.272H209.28V949.776C209.28 950.688 209.424 951.6 209.712 952.512C210.016 953.408 210.432 954.256 210.96 955.056C211.504 955.84 212.12 956.536 212.808 957.144C213.512 957.752 214.264 958.232 215.064 958.584L213.96 960.168C213.08 959.752 212.256 959.192 211.488 958.488C210.72 957.784 210.048 956.976 209.472 956.064C208.912 955.136 208.472 954.144 208.152 953.088C207.832 952.016 207.672 950.912 207.672 949.776V946.272ZM202.224 945.384H214.344V947.04H202.224V945.384ZM217.296 943.152H219.288V964.872H217.296V943.152Z" fill="#E5F4FF"/>
<path d="M86.2917 946L79 952.666L86.2917 959.333" stroke="#E5F4FF" strokelinecap="round" strokelinejoin="round"/>
<path d="M89.2917 946L82 952.666L89.2917 959.333" stroke="#E5F4FF" strokelinecap="round" strokelinejoin="round"/>
<path d="M1048.54 404.15H859.514C859.514 409.001 856.13 412.927 851.972 412.927C847.814 412.927 844.43 409.001 844.43 404.15H396.546C388.515 404.15 382 411.729 382 421.087V662.616C382 671.961 388.512 679.54 396.546 679.54H844.431C844.431 674.701 847.805 670.764 851.974 670.764C856.142 670.764 859.515 674.702 859.515 679.54H1048.55C1056.58 679.54 1063.09 671.961 1063.09 662.616V421.087C1063.09 411.73 1056.58 404.151 1048.55 404.151M859.371 650.661C858.811 654.124 856.418 656.9 853.45 657.563C852.964 657.67 852.47 657.726 851.973 657.73C847.315 657.718 843.656 652.831 844.563 647.233C845.134 643.77 847.529 640.983 850.495 640.331C850.98 640.224 851.475 640.168 851.971 640.165C856.619 640.165 860.289 645.063 859.371 650.661ZM859.371 620.062C858.81 623.513 856.417 626.3 853.449 626.964C852.964 627.071 852.469 627.127 851.972 627.13C847.315 627.119 843.655 622.232 844.562 616.635C845.133 613.172 847.529 610.384 850.494 609.732C850.979 609.625 851.474 609.569 851.971 609.566C856.618 609.566 860.288 614.465 859.371 620.062ZM859.37 589.464C858.809 592.915 856.416 595.702 853.448 596.366C852.963 596.473 852.468 596.528 851.971 596.532C847.314 596.52 843.655 591.634 844.561 586.035C845.132 582.572 847.528 579.785 850.493 579.133C850.978 579.026 851.473 578.97 851.97 578.967C856.617 578.967 860.288 583.865 859.37 589.464ZM859.369 558.864C858.809 562.316 856.416 565.103 853.447 565.767C852.962 565.873 852.467 565.929 851.971 565.933C847.313 565.921 843.654 561.035 844.561 555.437C845.132 551.974 847.527 549.187 850.493 548.535C850.978 548.427 851.473 548.372 851.969 548.369C856.616 548.369 860.287 553.267 859.369 558.864ZM859.368 528.266C858.808 531.717 856.415 534.504 853.447 535.168C852.962 535.275 852.467 535.331 851.97 535.334C847.312 535.323 843.653 530.436 844.56 524.838C845.13 521.375 847.527 518.588 850.492 517.936C850.977 517.828 851.472 517.773 851.969 517.769C856.616 517.769 860.286 522.668 859.368 528.266ZM859.368 497.667C858.807 501.118 856.414 503.905 853.446 504.57C852.961 504.676 852.466 504.732 851.969 504.736C847.312 504.724 843.652 499.838 844.559 494.24C845.13 490.777 847.526 487.99 850.491 487.338C850.976 487.231 851.471 487.175 851.968 487.172C856.615 487.172 860.285 492.07 859.367 497.668M859.367 467.069C858.806 470.52 856.413 473.308 853.445 473.971C852.96 474.078 852.465 474.134 851.969 474.137C847.311 474.126 843.652 469.239 844.558 463.629C845.129 460.178 847.525 457.391 850.49 456.739C850.975 456.631 851.47 456.576 851.967 456.573C856.614 456.573 860.285 461.471 859.367 467.069ZM859.366 436.47C858.806 439.921 856.413 442.708 853.445 443.373C852.959 443.48 852.464 443.535 851.968 443.539C847.31 443.527 843.651 438.641 844.557 433.031C845.128 429.58 847.524 426.793 850.49 426.141C850.975 426.034 851.47 425.978 851.966 425.975C856.614 425.975 860.283 430.873 859.365 436.471" fill="#47B5FF"/>
<path d="M1063.08 421.092V662.621C1063.08 671.966 1056.57 679.545 1048.54 679.545H859.509C859.509 674.706 856.125 670.769 851.967 670.769V657.735C852.463 657.732 852.958 657.676 853.443 657.569C856.409 656.905 858.805 654.13 859.365 650.667C860.283 645.069 856.613 640.171 851.966 640.171V627.136C852.463 627.132 852.958 627.077 853.443 626.97C856.409 626.305 858.804 623.519 859.364 620.068C860.282 614.469 856.613 609.572 851.965 609.572V596.537C852.462 596.533 852.957 596.477 853.442 596.371C856.408 595.706 858.803 592.92 859.364 589.468C860.281 583.87 856.612 578.973 851.965 578.973V565.938C852.461 565.935 852.956 565.879 853.441 565.772C856.407 565.108 858.803 562.321 859.363 558.87C860.281 553.272 856.611 548.374 851.964 548.374V535.339C852.461 535.336 852.955 535.28 853.441 535.173C856.407 534.509 858.802 531.722 859.362 528.271C860.28 522.673 856.61 517.775 851.963 517.775V504.741C852.46 504.737 852.955 504.681 853.44 504.575C856.406 503.91 858.801 501.124 859.361 497.672C860.279 492.074 856.61 487.177 851.962 487.177V474.142C852.459 474.138 852.954 474.082 853.439 473.975C856.405 473.311 858.8 470.524 859.361 467.073C860.279 461.475 856.609 456.577 851.962 456.577V443.542C852.458 443.539 852.953 443.483 853.438 443.376C856.404 442.712 858.8 439.925 859.36 436.474C860.278 430.876 856.608 425.978 851.961 425.978V412.932C856.119 412.932 859.503 409.006 859.503 404.155H1048.53C1056.56 404.155 1063.08 411.734 1063.08 421.092" fill="#E5F4FF"/>
<path d="M1063.08 421.092V662.621C1063.08 671.966 1056.57 679.545 1048.54 679.545H859.509C859.509 674.706 856.125 670.769 851.967 670.769V657.735C852.463 657.732 852.958 657.676 853.443 657.569C856.409 656.905 858.805 654.13 859.365 650.667C860.283 645.069 856.613 640.171 851.966 640.171V627.136C852.463 627.132 852.958 627.077 853.443 626.97C856.409 626.305 858.804 623.519 859.364 620.068C860.282 614.469 856.613 609.572 851.965 609.572V596.537C852.462 596.533 852.957 596.477 853.442 596.371C856.408 595.706 858.803 592.92 859.364 589.468C860.281 583.87 856.612 578.973 851.965 578.973V565.938C852.461 565.935 852.956 565.879 853.441 565.772C856.407 565.108 858.803 562.321 859.363 558.87C860.281 553.272 856.611 548.374 851.964 548.374V535.339C852.461 535.336 852.955 535.28 853.441 535.173C856.407 534.509 858.802 531.722 859.362 528.271C860.28 522.673 856.61 517.775 851.963 517.775V504.741C852.46 504.737 852.955 504.681 853.44 504.575C856.406 503.91 858.801 501.124 859.361 497.672C860.279 492.074 856.61 487.177 851.962 487.177V474.142C852.459 474.138 852.954 474.082 853.439 473.975C856.405 473.311 858.8 470.524 859.361 467.073C860.279 461.475 856.609 456.577 851.962 456.577V443.542C852.458 443.539 852.953 443.483 853.438 443.376C856.404 442.712 858.8 439.925 859.36 436.474C860.278 430.876 856.608 425.978 851.961 425.978V412.932C856.119 412.932 859.503 409.006 859.503 404.155H1048.53C1056.57 404.155 1063.08 411.734 1063.08 421.092Z" stroke="#EAF6FB" strokewidth="0.75"/>
<path d="M821.893 669.319H407.716C399.713 669.319 393.225 661.77 393.225 652.458V431.245C393.225 421.932 399.713 414.382 407.716 414.382H821.893C829.895 414.382 836.383 421.932 836.383 431.245V652.458C836.382 661.77 829.895 669.319 821.893 669.319Z" stroke="#E5F4FF" strokewidth="3"/>
<path d="M1037.34 669.101H881.083C873.081 669.101 866.592 661.552 866.592 652.24V431.027C866.592 421.714 873.081 414.164 881.083 414.164H1037.34C1045.35 414.164 1051.83 421.714 1051.83 431.027V652.24C1051.83 661.552 1045.34 669.101 1037.34 669.101Z" stroke="#47B5FF" strokewidth="3"/>
<path d="M738.84 562.047C737.056 557.373 735.007 552.805 732.703 548.364C724.716 532.521 714.464 517.926 702.268 505.039C684.548 486.459 663.573 473.497 641.285 466.994C609.376 457.682 576.014 461.511 544.602 472.122C539.562 473.825 534.208 476.109 528.948 477.53C523.603 478.979 518.055 478.299 512.783 479.958C508.615 481.268 505.098 484.542 501.498 487.393C493.46 493.66 486.123 500.776 479.611 508.617C472.159 517.608 466.319 527.821 462.349 538.804C460.674 543.522 457.941 549.346 458.815 554.698C460.968 567.886 476.677 572.261 485.07 575.361C497.459 579.939 510.338 582.29 523.142 583.909C535.737 585.437 548.402 586.322 561.088 586.561C561.088 586.561 621.98 588.934 671.184 564.42C671.184 564.42 705.013 555.723 722.85 569.166C737.696 599.862 753.646 622.464 770.965 635.032C767.568 626.593 763.799 618.296 761.506 609.215C759.252 600.281 760.916 590.721 759.138 581.689C758.187 576.847 752.833 573.019 756.004 567.639C757.615 564.907 761.634 558.095 764.674 558.095C764.674 558.095 755.476 548.366 732.703 548.366" stroke="#E5F4FF" strokewidth="3" strokelinecap="round"/>
<path d="M578.921 563.365C587.788 573.432 596.262 592.86 588.484 607.561C586.294 611.696 582.045 608.811 579.489 606.909C568.212 598.518 560.28 581.945 553.703 568.108" stroke="#E5F4FF" strokewidth="3" strokelinecap="round"/>
<path d="M461.005 559.369C460.04 564.685 469.887 531.186 484.425 538.449C494.017 543.24 510.255 571.799 526.659 556.46" stroke="#E5F4FF" strokewidth="3" strokelinecap="round"/>
<path d="M548.5 537.413C548.5 539.39 546.053 540.992 543.036 540.992C540.019 540.992 537.572 539.39 537.572 537.413C537.572 535.435 540.019 533.833 543.036 533.833C546.053 533.833 548.5 535.435 548.5 537.413Z" fill="#221E1F"/>
<g filter="url(#filter0_dg_85_211)">
<path d="M1048.54 404.15H859.514C859.514 409.001 856.13 412.927 851.972 412.927C847.814 412.927 844.43 409.001 844.43 404.15H396.546C388.515 404.15 382 411.729 382 421.087V662.616C382 671.961 388.512 679.54 396.546 679.54H844.431C844.431 674.701 847.805 670.764 851.974 670.764C856.142 670.764 859.515 674.702 859.515 679.54H1048.55C1056.58 679.54 1063.09 671.961 1063.09 662.616V421.087C1063.09 411.73 1056.58 404.151 1048.55 404.151M859.371 650.661C858.811 654.124 856.418 656.9 853.45 657.563C852.965 657.67 852.47 657.726 851.973 657.73C847.315 657.718 843.656 652.831 844.563 647.233C845.134 643.77 847.529 640.983 850.495 640.331C850.98 640.224 851.475 640.168 851.971 640.165C856.619 640.165 860.289 645.063 859.371 650.661ZM859.371 620.062C858.81 623.513 856.417 626.3 853.449 626.964C852.964 627.071 852.469 627.127 851.972 627.13C847.315 627.119 843.655 622.232 844.562 616.635C845.133 613.172 847.529 610.384 850.494 609.732C850.979 609.625 851.474 609.569 851.971 609.566C856.618 609.566 860.288 614.465 859.371 620.062ZM859.37 589.464C858.809 592.915 856.416 595.702 853.448 596.366C852.963 596.473 852.468 596.528 851.971 596.532C847.314 596.52 843.655 591.634 844.561 586.035C845.132 582.572 847.528 579.785 850.493 579.133C850.978 579.026 851.473 578.97 851.97 578.967C856.617 578.967 860.288 583.865 859.37 589.464ZM859.369 558.864C858.809 562.316 856.416 565.103 853.447 565.767C852.962 565.873 852.467 565.929 851.971 565.933C847.313 565.921 843.654 561.035 844.561 555.437C845.132 551.974 847.527 549.187 850.493 548.535C850.978 548.427 851.473 548.372 851.969 548.369C856.616 548.369 860.287 553.267 859.369 558.864ZM859.368 528.266C858.808 531.717 856.415 534.504 853.447 535.168C852.962 535.275 852.467 535.331 851.97 535.334C847.312 535.323 843.653 530.436 844.56 524.838C845.13 521.375 847.527 518.588 850.492 517.936C850.977 517.828 851.472 517.773 851.969 517.769C856.616 517.769 860.286 522.668 859.368 528.266ZM859.368 497.667C858.807 501.118 856.414 503.905 853.446 504.57C852.961 504.676 852.466 504.732 851.969 504.736C847.312 504.724 843.652 499.838 844.559 494.24C845.13 490.777 847.526 487.99 850.491 487.338C850.976 487.231 851.471 487.175 851.968 487.172C856.615 487.172 860.285 492.07 859.367 497.668M859.367 467.069C858.806 470.52 856.413 473.308 853.445 473.971C852.96 474.078 852.465 474.134 851.969 474.137C847.311 474.126 843.652 469.239 844.558 463.629C845.129 460.178 847.525 457.391 850.49 456.739C850.975 456.631 851.47 456.576 851.967 456.573C856.614 456.573 860.285 461.471 859.367 467.069ZM859.366 436.47C858.806 439.921 856.413 442.708 853.445 443.373C852.959 443.48 852.464 443.535 851.968 443.539C847.31 443.527 843.651 438.641 844.557 433.031C845.128 429.58 847.524 426.793 850.49 426.141C850.975 426.034 851.47 425.978 851.966 425.975C856.614 425.975 860.283 430.873 859.365 436.471" fill="#47B5FF"/>
</g>
<g filter="url(#filter1_dg_85_211)">
<path d="M1063.08 421.092V662.621C1063.08 671.966 1056.57 679.545 1048.54 679.545H859.509C859.509 674.706 856.125 670.769 851.967 670.769V657.735C852.463 657.732 852.958 657.676 853.443 657.569C856.409 656.905 858.805 654.13 859.365 650.667C860.283 645.069 856.613 640.171 851.966 640.171V627.136C852.463 627.132 852.958 627.077 853.443 626.97C856.409 626.305 858.804 623.519 859.364 620.068C860.282 614.469 856.613 609.572 851.965 609.572V596.537C852.462 596.533 852.957 596.477 853.442 596.371C856.408 595.706 858.803 592.92 859.364 589.468C860.281 583.87 856.612 578.973 851.965 578.973V565.938C852.461 565.935 852.956 565.879 853.441 565.772C856.407 565.108 858.803 562.321 859.363 558.87C860.281 553.272 856.611 548.374 851.964 548.374V535.339C852.461 535.336 852.955 535.28 853.441 535.173C856.407 534.509 858.802 531.722 859.362 528.271C860.28 522.673 856.61 517.775 851.963 517.775V504.741C852.46 504.737 852.955 504.681 853.44 504.575C856.406 503.91 858.801 501.124 859.361 497.672C860.279 492.074 856.61 487.177 851.962 487.177V474.142C852.459 474.138 852.954 474.082 853.439 473.975C856.405 473.311 858.8 470.524 859.361 467.073C860.279 461.475 856.609 456.577 851.962 456.577V443.542C852.458 443.539 852.953 443.483 853.438 443.376C856.404 442.712 858.8 439.925 859.36 436.474C860.278 430.876 856.608 425.978 851.961 425.978V412.932C856.119 412.932 859.503 409.006 859.503 404.155H1048.53C1056.56 404.155 1063.08 411.734 1063.08 421.092" fill="#E5F4FF"/>
</g>
<path d="M1063.08 421.092V662.621C1063.08 671.966 1056.57 679.545 1048.54 679.545H859.509C859.509 674.706 856.125 670.769 851.967 670.769V657.735C852.463 657.732 852.958 657.676 853.443 657.569C856.409 656.905 858.805 654.13 859.365 650.667C860.283 645.069 856.613 640.171 851.966 640.171V627.136C852.463 627.132 852.958 627.077 853.443 626.97C856.409 626.305 858.804 623.519 859.364 620.068C860.282 614.469 856.613 609.572 851.965 609.572V596.537C852.462 596.533 852.957 596.477 853.442 596.371C856.408 595.706 858.803 592.92 859.364 589.468C860.281 583.87 856.612 578.973 851.965 578.973V565.938C852.461 565.935 852.956 565.879 853.441 565.772C856.407 565.108 858.803 562.321 859.363 558.87C860.281 553.272 856.611 548.374 851.964 548.374V535.339C852.461 535.336 852.955 535.28 853.441 535.173C856.407 534.509 858.802 531.722 859.362 528.271C860.28 522.673 856.61 517.775 851.963 517.775V504.741C852.46 504.737 852.955 504.681 853.44 504.575C856.406 503.91 858.801 501.124 859.361 497.672C860.279 492.074 856.61 487.177 851.962 487.177V474.142C852.459 474.138 852.954 474.082 853.439 473.975C856.405 473.311 858.8 470.524 859.361 467.073C860.279 461.475 856.609 456.577 851.962 456.577V443.542C852.458 443.539 852.953 443.483 853.438 443.376C856.404 442.712 858.8 439.925 859.36 436.474C860.278 430.876 856.608 425.978 851.961 425.978V412.932C856.119 412.932 859.503 409.006 859.503 404.155H1048.53C1056.57 404.155 1063.08 411.734 1063.08 421.092Z" stroke="#EAF6FB" strokewidth="0.75"/>
<path d="M821.893 669.319H407.716C399.713 669.319 393.225 661.77 393.225 652.458V431.245C393.225 421.932 399.713 414.382 407.716 414.382H821.893C829.895 414.382 836.383 421.932 836.383 431.245V652.458C836.382 661.77 829.895 669.319 821.893 669.319Z" stroke="#E5F4FF" strokewidth="3"/>
<path d="M1037.34 669.101H881.083C873.081 669.101 866.592 661.552 866.592 652.24V431.027C866.592 421.714 873.081 414.164 881.083 414.164H1037.34C1045.35 414.164 1051.83 421.714 1051.83 431.027V652.24C1051.83 661.552 1045.34 669.101 1037.34 669.101Z" stroke="#47B5FF" strokewidth="3"/>
<path d="M738.84 562.047C737.056 557.373 735.007 552.805 732.703 548.364C724.716 532.521 714.464 517.926 702.268 505.039C684.548 486.459 663.573 473.497 641.285 466.994C609.376 457.682 576.014 461.511 544.602 472.122C539.562 473.825 534.208 476.109 528.948 477.53C523.603 478.979 518.055 478.299 512.783 479.958C508.615 481.268 505.098 484.542 501.498 487.393C493.46 493.66 486.123 500.776 479.611 508.617C472.159 517.608 466.319 527.821 462.349 538.804C460.674 543.522 457.941 549.346 458.815 554.698C460.968 567.886 476.677 572.261 485.07 575.361C497.459 579.939 510.338 582.29 523.142 583.909C535.737 585.437 548.402 586.322 561.088 586.561" stroke="#E5F4FF" strokewidth="3" strokelinecap="round"/>
<path d="M591 585.38C613.092 583.327 643.931 577.998 671.184 564.42C671.184 564.42 705.013 555.723 722.85 569.166C737.696 599.862 753.646 622.464 770.965 635.032C767.568 626.593 763.799 618.296 761.506 609.215C759.252 600.281 760.916 590.721 759.138 581.689C758.187 576.847 752.833 573.019 756.004 567.639C757.615 564.907 761.634 558.095 764.674 558.095C764.674 558.095 755.476 548.366 732.703 548.366" stroke="#E5F4FF" strokewidth="3" strokelinecap="round"/>
<path d="M578.921 563.365C587.788 573.432 596.262 592.86 588.484 607.561C586.294 611.696 582.045 608.811 579.489 606.909C568.212 598.518 560.28 581.945 553.703 568.108" stroke="#E5F4FF" strokewidth="3" strokelinecap="round"/>
<path d="M461.005 559.369C460.04 564.685 469.887 531.186 484.425 538.449C494.017 543.24 510.255 571.799 526.659 556.46" stroke="#E5F4FF" strokewidth="3" strokelinecap="round"/>
<path d="M548.5 537.413C548.5 539.39 546.053 540.992 543.036 540.992C540.019 540.992 537.572 539.39 537.572 537.413C537.572 535.435 540.019 533.833 543.036 533.833C546.053 533.833 548.5 535.435 548.5 537.413Z" fill="#221E1F"/>
<path d="M900.154 511.344L888.842 511.344L888.842 509.531L896.576 504.172L896.576 504.078L888.842 504.078L888.842 502.047L900.154 502.047L900.154 503.891L892.42 509.219L892.42 509.328L900.154 509.328L900.154 511.344ZM891.232 512.953C893.139 512.953 893.701 514.531 893.795 516.109C893.834 516.695 893.904 517.914 893.92 518.281L894.592 518.281C895.436 518.281 895.92 517.734 895.92 516.75C895.92 515.859 895.514 515.312 894.904 515.156L894.904 513.234C896.342 513.375 897.436 514.672 897.436 516.797C897.436 518.406 896.779 520.266 894.514 520.266L888.842 520.266L888.842 518.359L890.014 518.359L890.014 518.297C889.295 517.922 888.67 517.125 888.67 515.797C888.67 514.172 889.561 512.953 891.232 512.953ZM891.248 514.875C890.514 514.875 890.139 515.469 890.139 516.312C890.139 517.516 890.936 518.297 891.889 518.297L892.592 518.297L892.467 516.422C892.389 515.469 891.998 514.875 891.248 514.875ZM885.654 527.812L890.186 527.812L890.186 527.734C889.561 527.422 888.686 526.766 888.686 525.297C888.686 523.297 890.279 521.797 893.076 521.797C895.904 521.797 897.436 523.344 897.436 525.312C897.436 526.812 896.545 527.437 895.936 527.734L895.936 527.844L897.326 527.844L897.326 529.797L885.654 529.797L885.654 527.812ZM890.326 525.844C890.326 527.125 891.436 527.859 893.092 527.859C894.732 527.859 895.811 527.141 895.811 525.844C895.811 524.516 894.67 523.828 893.092 523.828C891.482 523.828 890.326 524.531 890.326 525.844ZM892.404 537.141L897.326 537.141L897.326 539.125L888.842 539.125L888.842 537.203L890.342 537.203L890.342 537.109C889.404 536.719 888.732 535.828 888.732 534.562C888.732 532.891 889.889 531.734 891.92 531.719L897.326 531.719L897.326 533.719L892.232 533.719C891.154 533.719 890.467 534.359 890.467 535.328C890.467 536.203 891.107 537.141 892.404 537.141ZM891.232 540.641C893.139 540.641 893.701 542.219 893.795 543.797C893.834 544.383 893.904 545.602 893.92 545.969L894.592 545.969C895.436 545.969 895.92 545.422 895.92 544.437C895.92 543.547 895.514 543 894.904 542.844L894.904 540.922C896.342 541.062 897.436 542.359 897.436 544.484C897.436 546.094 896.779 547.953 894.514 547.953L888.842 547.953L888.842 546.047L890.014 546.047L890.014 545.984C889.295 545.609 888.67 544.812 888.67 543.484C888.67 541.859 889.561 540.641 891.232 540.641ZM891.248 542.562C890.514 542.562 890.139 543.156 890.139 544C890.139 545.203 890.936 545.984 891.889 545.984L892.592 545.984L892.467 544.109C892.389 543.156 891.998 542.562 891.248 542.562ZM888.842 549.828L897.326 549.828L897.326 551.766L895.92 551.766L895.92 551.859C896.889 552.156 897.451 552.984 897.451 553.953C897.451 554.172 897.436 554.484 897.404 554.672L895.561 554.672C895.623 554.5 895.686 554.078 895.686 553.75C895.686 552.641 894.92 551.828 893.842 551.828L888.842 551.828L888.842 549.828ZM888.842 555.859L897.326 555.859L897.326 557.859L888.842 557.859L888.842 555.859ZM898.529 556.875C898.529 556.25 899.014 555.719 899.623 555.719C900.217 555.719 900.701 556.25 900.701 556.875C900.701 557.516 900.217 558.031 899.623 558.031C899.014 558.031 898.529 557.516 898.529 556.875ZM892.404 565.187L897.326 565.187L897.326 567.172L888.842 567.172L888.842 565.25L890.342 565.25L890.342 565.156C889.404 564.766 888.732 563.875 888.732 562.609C888.732 560.937 889.889 559.781 891.92 559.766L897.326 559.766L897.326 561.766L892.232 561.766C891.154 561.766 890.467 562.406 890.467 563.375C890.467 564.25 891.107 565.187 892.404 565.187ZM888.842 569.078L897.326 569.078L897.326 570.984L895.889 570.984L895.889 571.094C896.857 571.437 897.436 572.297 897.436 573.422C897.436 574.578 896.857 575.391 895.889 575.719L895.889 575.812C896.826 576.187 897.436 577.125 897.436 578.359C897.436 579.906 896.436 581 894.545 581L888.842 581L888.842 579.016L894.232 579.016C895.295 579.016 895.764 578.375 895.764 577.562C895.764 576.578 895.092 576.016 894.139 576.016L888.842 576.016L888.842 574.078L894.311 574.078C895.186 574.078 895.764 573.484 895.764 572.641C895.764 571.781 895.061 571.078 893.998 571.078L888.842 571.078L888.842 569.078Z" fill="#84CFF4"/>
<path d="M1017.69 571.382L1029 571.382L1029 573.194L1021.27 578.554L1021.27 578.647L1029 578.647L1029 580.679L1017.69 580.679L1017.69 578.835L1025.42 573.507L1025.42 573.397L1017.69 573.397L1017.69 571.382ZM1026.61 569.772C1024.7 569.772 1024.14 568.194 1024.05 566.616C1024.01 566.03 1023.94 564.812 1023.92 564.444L1023.25 564.444C1022.41 564.444 1021.92 564.991 1021.92 565.976C1021.92 566.866 1022.33 567.413 1022.94 567.569L1022.94 569.491C1021.5 569.351 1020.41 568.054 1020.41 565.929C1020.41 564.319 1021.06 562.46 1023.33 562.46L1029 562.46L1029 564.366L1027.83 564.366L1027.83 564.429C1028.55 564.804 1029.17 565.601 1029.17 566.929C1029.17 568.554 1028.28 569.772 1026.61 569.772ZM1026.59 567.851C1027.33 567.851 1027.7 567.257 1027.7 566.413C1027.7 565.21 1026.91 564.429 1025.95 564.429L1025.25 564.429L1025.38 566.304C1025.45 567.257 1025.84 567.851 1026.59 567.851ZM1032.19 554.913L1027.66 554.913L1027.66 554.991C1028.28 555.304 1029.16 555.96 1029.16 557.429C1029.16 559.429 1027.56 560.929 1024.77 560.929C1021.94 560.929 1020.41 559.382 1020.41 557.413C1020.41 555.913 1021.3 555.288 1021.91 554.991L1021.91 554.882L1020.52 554.882L1020.52 552.929L1032.19 552.929L1032.19 554.913ZM1027.52 556.882C1027.52 555.601 1026.41 554.866 1024.75 554.866C1023.11 554.866 1022.03 555.585 1022.03 556.882C1022.03 558.21 1023.17 558.897 1024.75 558.897C1026.36 558.897 1027.52 558.194 1027.52 556.882ZM1025.44 545.585L1020.52 545.585L1020.52 543.601L1029 543.601L1029 545.522L1027.5 545.522L1027.5 545.616C1028.44 546.007 1029.11 546.897 1029.11 548.163C1029.11 549.835 1027.95 550.991 1025.92 551.007L1020.52 551.007L1020.52 549.007L1025.61 549.007C1026.69 549.007 1027.38 548.366 1027.38 547.397C1027.38 546.522 1026.73 545.585 1025.44 545.585ZM1026.61 542.085C1024.7 542.085 1024.14 540.507 1024.05 538.929C1024.01 538.343 1023.94 537.124 1023.92 536.757L1023.25 536.757C1022.41 536.757 1021.92 537.304 1021.92 538.288C1021.92 539.179 1022.33 539.726 1022.94 539.882L1022.94 541.804C1021.5 541.663 1020.41 540.366 1020.41 538.241C1020.41 536.632 1021.06 534.772 1023.33 534.772L1029 534.772L1029 536.679L1027.83 536.679L1027.83 536.741C1028.55 537.116 1029.17 537.913 1029.17 539.241C1029.17 540.866 1028.28 542.085 1026.61 542.085ZM1026.59 540.163C1027.33 540.163 1027.7 539.569 1027.7 538.726C1027.7 537.522 1026.91 536.741 1025.95 536.741L1025.25 536.741L1025.38 538.616C1025.45 539.569 1025.84 540.163 1026.59 540.163ZM1029 532.897L1020.52 532.897L1020.52 530.96L1021.92 530.96L1021.92 530.866C1020.95 530.569 1020.39 529.741 1020.39 528.772C1020.39 528.554 1020.41 528.241 1020.44 528.054L1022.28 528.054C1022.22 528.226 1022.16 528.647 1022.16 528.976C1022.16 530.085 1022.92 530.897 1024 530.897L1029 530.897L1029 532.897ZM1029 526.866L1020.52 526.866L1020.52 524.866L1029 524.866L1029 526.866ZM1019.31 525.851C1019.31 526.476 1018.83 527.007 1018.22 527.007C1017.63 527.007 1017.14 526.476 1017.14 525.851C1017.14 525.21 1017.63 524.694 1018.22 524.694C1018.83 524.694 1019.31 525.21 1019.31 525.851ZM1025.44 517.538L1020.52 517.538L1020.52 515.554L1029 515.554L1029 517.476L1027.5 517.476L1027.5 517.569C1028.44 517.96 1029.11 518.851 1029.11 520.116C1029.11 521.788 1027.95 522.944 1025.92 522.96L1020.52 522.96L1020.52 520.96L1025.61 520.96C1026.69 520.96 1027.38 520.319 1027.38 519.351C1027.38 518.476 1026.73 517.538 1025.44 517.538ZM1029 513.647L1020.52 513.647L1020.52 511.741L1021.95 511.741L1021.95 511.632C1020.98 511.288 1020.41 510.429 1020.41 509.304C1020.41 508.147 1020.98 507.335 1021.95 507.007L1021.95 506.913C1021.02 506.538 1020.41 505.601 1020.41 504.366C1020.41 502.819 1021.41 501.726 1023.3 501.726L1029 501.726L1029 503.71L1023.61 503.71C1022.55 503.71 1022.08 504.351 1022.08 505.163C1022.08 506.147 1022.75 506.71 1023.7 506.71L1029 506.71L1029 508.647L1023.53 508.647C1022.66 508.647 1022.08 509.241 1022.08 510.085C1022.08 510.944 1022.78 511.647 1023.84 511.647L1029 511.647L1029 513.647Z" fill="#84CFF4"/>
<path d="M931.344 421.566V432.879H929.531L924.172 425.145H924.078V432.879H922.047V421.566H923.891L929.219 429.301H929.328V421.566H931.344ZM932.953 430.488C932.953 428.582 934.531 428.02 936.109 427.926C936.695 427.887 937.914 427.816 938.281 427.801V427.129C938.281 426.285 937.734 425.801 936.75 425.801C935.859 425.801 935.312 426.207 935.156 426.816H933.234C933.375 425.379 934.672 424.285 936.797 424.285C938.406 424.285 940.266 424.941 940.266 427.207V432.879H938.359V431.707H938.297C937.922 432.426 937.125 433.051 935.797 433.051C934.172 433.051 932.953 432.16 932.953 430.488ZM934.875 430.473C934.875 431.207 935.469 431.582 936.312 431.582C937.516 431.582 938.297 430.785 938.297 429.832V429.129L936.422 429.254C935.469 429.332 934.875 429.723 934.875 430.473ZM947.812 436.066V431.535H947.734C947.422 432.16 946.766 433.035 945.297 433.035C943.297 433.035 941.797 431.441 941.797 428.645C941.797 425.816 943.344 424.285 945.312 424.285C946.812 424.285 947.438 425.176 947.734 425.785H947.844V424.395H949.797V436.066H947.812ZM945.844 431.395C947.125 431.395 947.859 430.285 947.859 428.629C947.859 426.988 947.141 425.91 945.844 425.91C944.516 425.91 943.828 427.051 943.828 428.629C943.828 430.238 944.531 431.395 945.844 431.395ZM957.141 429.316V424.395H959.125V432.879H957.203V431.379H957.109C956.719 432.316 955.828 432.988 954.562 432.988C952.891 432.988 951.734 431.832 951.719 429.801V424.395H953.719V429.488C953.719 430.566 954.359 431.254 955.328 431.254C956.203 431.254 957.141 430.613 957.141 429.316ZM960.641 430.488C960.641 428.582 962.219 428.02 963.797 427.926C964.383 427.887 965.602 427.816 965.969 427.801V427.129C965.969 426.285 965.422 425.801 964.438 425.801C963.547 425.801 963 426.207 962.844 426.816H960.922C961.062 425.379 962.359 424.285 964.484 424.285C966.094 424.285 967.953 424.941 967.953 427.207V432.879H966.047V431.707H965.984C965.609 432.426 964.812 433.051 963.484 433.051C961.859 433.051 960.641 432.16 960.641 430.488ZM962.562 430.473C962.562 431.207 963.156 431.582 964 431.582C965.203 431.582 965.984 430.785 965.984 429.832V429.129L964.109 429.254C963.156 429.332 962.562 429.723 962.562 430.473ZM969.828 432.879V424.395H971.766V425.801H971.859C972.156 424.832 972.984 424.27 973.953 424.27C974.172 424.27 974.484 424.285 974.672 424.316V426.16C974.5 426.098 974.078 426.035 973.75 426.035C972.641 426.035 971.828 426.801 971.828 427.879V432.879H969.828ZM975.859 432.879V424.395H977.859V432.879H975.859ZM976.875 423.191C976.25 423.191 975.719 422.707 975.719 422.098C975.719 421.504 976.25 421.02 976.875 421.02C977.516 421.02 978.031 421.504 978.031 422.098C978.031 422.707 977.516 423.191 976.875 423.191ZM985.188 429.316V424.395H987.172V432.879H985.25V431.379H985.156C984.766 432.316 983.875 432.988 982.609 432.988C980.938 432.988 979.781 431.832 979.766 429.801V424.395H981.766V429.488C981.766 430.566 982.406 431.254 983.375 431.254C984.25 431.254 985.188 430.613 985.188 429.316ZM989.078 432.879V424.395H990.984V425.832H991.094C991.438 424.863 992.297 424.285 993.422 424.285C994.578 424.285 995.391 424.863 995.719 425.832H995.812C996.188 424.895 997.125 424.285 998.359 424.285C999.906 424.285 1001 425.285 1001 427.176V432.879H999.016V427.488C999.016 426.426 998.375 425.957 997.562 425.957C996.578 425.957 996.016 426.629 996.016 427.582V432.879H994.078V427.41C994.078 426.535 993.484 425.957 992.641 425.957C991.781 425.957 991.078 426.66 991.078 427.723V432.879H989.078Z" fill="#84CFF4"/>
<path d="M525.248 635.128V634.328L525.888 634.264C526.635 634.179 527.2 634.072 527.584 633.944C527.989 633.816 528.267 633.517 528.416 633.048C528.565 632.579 528.64 631.811 528.64 630.744V614.232C528.448 613.997 528.16 613.741 527.776 613.464C527.392 613.165 526.827 613.016 526.08 613.016H525.12V612.184L531.328 612.28C531.712 612.813 532.224 613.517 532.864 614.392C533.525 615.267 534.251 616.237 535.04 617.304C535.851 618.371 536.683 619.469 537.536 620.6C538.389 621.709 539.211 622.787 540 623.832C540.811 624.877 541.536 625.816 542.176 626.648C542.816 627.48 543.317 628.141 543.68 628.632V616.536C543.68 615.469 543.605 614.712 543.456 614.264C543.307 613.795 543.029 613.496 542.624 613.368C542.24 613.219 541.675 613.112 540.928 613.048L540.288 612.984V612.184L544.448 612.28L548.352 612.184V612.984L547.712 613.048C546.987 613.133 546.421 613.251 546.016 613.4C545.611 613.528 545.333 613.816 545.184 614.264C545.035 614.712 544.96 615.469 544.96 616.536V635H544C543.659 634.296 543.147 633.432 542.464 632.408C541.803 631.363 541.035 630.221 540.16 628.984C539.285 627.747 538.368 626.488 537.408 625.208C536.469 623.907 535.531 622.648 534.592 621.432C533.653 620.216 532.779 619.107 531.968 618.104C531.157 617.101 530.475 616.269 529.92 615.608V630.744C529.92 631.811 529.995 632.579 530.144 633.048C530.293 633.517 530.571 633.816 530.976 633.944C531.381 634.072 531.947 634.179 532.672 634.264L533.312 634.328V635.128L529.216 635L525.248 635.128ZM554.152 635.352C553.128 635.352 552.275 635.096 551.592 634.584C550.931 634.051 550.6 633.315 550.6 632.376C550.6 631.437 551.016 630.605 551.848 629.88C552.68 629.133 553.651 628.461 554.76 627.864C555.592 627.395 556.424 626.989 557.256 626.648C558.088 626.307 558.803 626.019 559.4 625.784V624.76C559.4 623.587 559.176 622.712 558.728 622.136C558.301 621.56 557.48 621.272 556.264 621.272C555.688 621.272 555.123 621.347 554.568 621.496C554.013 621.645 553.736 621.923 553.736 622.328C553.736 622.413 553.747 622.509 553.768 622.616C553.811 622.723 553.843 622.829 553.864 622.936C553.971 623.213 554.024 623.501 554.024 623.8C554.024 624.205 553.875 624.525 553.576 624.76C553.299 624.973 552.957 625.08 552.552 625.08C552.168 625.08 551.848 624.941 551.592 624.664C551.336 624.365 551.208 624.013 551.208 623.608C551.208 622.84 551.496 622.232 552.072 621.784C552.669 621.315 553.395 620.984 554.248 620.792C555.101 620.579 555.923 620.472 556.712 620.472C558.419 620.472 559.667 620.867 560.456 621.656C561.245 622.445 561.64 623.736 561.64 625.528V631.288C561.64 632.227 561.704 632.952 561.832 633.464C561.981 633.976 562.301 634.232 562.792 634.232C563.112 634.232 563.389 634.115 563.624 633.88C563.859 633.645 564.019 633.389 564.104 633.112L564.68 633.336C564.509 633.955 564.2 634.445 563.752 634.808C563.325 635.171 562.728 635.352 561.96 635.352C561.021 635.352 560.371 635.085 560.008 634.552C559.667 633.997 559.475 633.272 559.432 632.376C558.835 633.336 558.077 634.072 557.16 634.584C556.243 635.096 555.24 635.352 554.152 635.352ZM553.096 632.216C553.096 632.813 553.267 633.293 553.608 633.656C553.971 633.997 554.493 634.168 555.176 634.168C555.795 634.168 556.381 634.019 556.936 633.72C557.512 633.421 558.013 633.048 558.44 632.6C558.867 632.131 559.187 631.629 559.4 631.096V626.424C558.696 626.723 557.971 627.075 557.224 627.48C556.499 627.864 555.816 628.301 555.176 628.792C554.557 629.283 554.056 629.816 553.672 630.392C553.288 630.947 553.096 631.555 553.096 632.216ZM572.624 635.352C571.408 635.352 570.309 635.021 569.328 634.36C568.346 633.699 567.568 632.803 566.992 631.672C566.416 630.52 566.128 629.251 566.128 627.864C566.128 626.477 566.416 625.229 566.992 624.12C567.568 623.011 568.357 622.125 569.36 621.464C570.362 620.803 571.493 620.472 572.752 620.472C573.669 620.472 574.512 620.675 575.28 621.08C576.069 621.464 576.698 621.912 577.168 622.424L578.832 620.632H579.312V640.088C579.312 641.048 579.376 641.731 579.504 642.136C579.632 642.563 579.856 642.829 580.176 642.936C580.517 643.064 580.997 643.171 581.616 643.256L582.128 643.32V644.056L578.192 643.96L574.256 644.056V643.32L574.768 643.256C575.386 643.171 575.856 643.064 576.176 642.936C576.517 642.829 576.752 642.563 576.88 642.136C577.008 641.731 577.072 641.048 577.072 640.088V633.336C576.496 633.955 575.834 634.445 575.088 634.808C574.341 635.171 573.52 635.352 572.624 635.352ZM568.688 627.864C568.688 629.101 568.837 630.211 569.136 631.192C569.456 632.173 569.925 632.952 570.544 633.528C571.184 634.104 571.984 634.392 572.944 634.392C573.861 634.392 574.65 634.189 575.312 633.784C575.994 633.357 576.581 632.845 577.072 632.248V623.608C576.709 623.053 576.165 622.552 575.44 622.104C574.714 621.656 573.914 621.432 573.04 621.432C572.058 621.432 571.248 621.72 570.608 622.296C569.968 622.851 569.488 623.619 569.168 624.6C568.848 625.56 568.688 626.648 568.688 627.864ZM589.429 635.352C588.042 635.352 586.943 635.011 586.133 634.328C585.343 633.624 584.949 632.589 584.949 631.224V625.016C584.949 624.056 584.885 623.373 584.757 622.968C584.629 622.541 584.394 622.264 584.053 622.136C583.733 622.008 583.263 621.912 582.645 621.848L582.133 621.784V621.048L586.069 621.144L587.189 621.112V631.096C587.189 632.141 587.455 632.941 587.989 633.496C588.522 634.051 589.247 634.328 590.165 634.328C590.954 634.328 591.647 634.157 592.245 633.816C592.863 633.453 593.386 632.995 593.813 632.44C594.261 631.885 594.613 631.32 594.869 630.744V625.016C594.869 624.056 594.805 623.373 594.677 622.968C594.549 622.541 594.314 622.264 593.973 622.136C593.653 622.008 593.183 621.912 592.565 621.848L592.053 621.784V621.048L595.989 621.144L597.109 621.112V631.448C597.109 632.259 597.205 632.867 597.397 633.272C597.61 633.656 597.909 633.912 598.293 634.04C598.698 634.168 599.189 634.232 599.765 634.232V634.968C598.89 634.968 598.09 634.979 597.365 635C596.639 635.021 595.807 635.117 594.869 635.288V632.344C594.655 632.685 594.431 632.984 594.197 633.24C593.642 633.859 592.97 634.371 592.181 634.776C591.391 635.16 590.474 635.352 589.429 635.352ZM605.246 635.352C604.222 635.352 603.368 635.096 602.686 634.584C602.024 634.051 601.694 633.315 601.694 632.376C601.694 631.437 602.11 630.605 602.942 629.88C603.774 629.133 604.744 628.461 605.854 627.864C606.686 627.395 607.518 626.989 608.35 626.648C609.182 626.307 609.896 626.019 610.494 625.784V624.76C610.494 623.587 610.27 622.712 609.822 622.136C609.395 621.56 608.574 621.272 607.358 621.272C606.782 621.272 606.216 621.347 605.662 621.496C605.107 621.645 604.83 621.923 604.83 622.328C604.83 622.413 604.84 622.509 604.862 622.616C604.904 622.723 604.936 622.829 604.958 622.936C605.064 623.213 605.118 623.501 605.118 623.8C605.118 624.205 604.968 624.525 604.67 624.76C604.392 624.973 604.051 625.08 603.646 625.08C603.262 625.08 602.942 624.941 602.686 624.664C602.43 624.365 602.302 624.013 602.302 623.608C602.302 622.84 602.59 622.232 603.166 621.784C603.763 621.315 604.488 620.984 605.342 620.792C606.195 620.579 607.016 620.472 607.806 620.472C609.512 620.472 610.76 620.867 611.55 621.656C612.339 622.445 612.734 623.736 612.734 625.528V631.288C612.734 632.227 612.798 632.952 612.926 633.464C613.075 633.976 613.395 634.232 613.886 634.232C614.206 634.232 614.483 634.115 614.718 633.88C614.952 633.645 615.112 633.389 615.198 633.112L615.774 633.336C615.603 633.955 615.294 634.445 614.846 634.808C614.419 635.171 613.822 635.352 613.054 635.352C612.115 635.352 611.464 635.085 611.102 634.552C610.76 633.997 610.568 633.272 610.526 632.376C609.928 633.336 609.171 634.072 608.254 634.584C607.336 635.096 606.334 635.352 605.246 635.352ZM604.19 632.216C604.19 632.813 604.36 633.293 604.702 633.656C605.064 633.997 605.587 634.168 606.27 634.168C606.888 634.168 607.475 634.019 608.03 633.72C608.606 633.421 609.107 633.048 609.534 632.6C609.96 632.131 610.28 631.629 610.494 631.096V626.424C609.79 626.723 609.064 627.075 608.318 627.48C607.592 627.864 606.91 628.301 606.27 628.792C605.651 629.283 605.15 629.816 604.766 630.392C604.382 630.947 604.19 631.555 604.19 632.216ZM616.677 635.096V634.36L617.189 634.296C617.808 634.211 618.277 634.115 618.597 634.008C618.939 633.88 619.173 633.613 619.301 633.208C619.429 632.781 619.493 632.088 619.493 631.128V624.472C619.493 623.64 619.376 623.032 619.141 622.648C618.928 622.264 618.608 622.029 618.181 621.944C617.755 621.837 617.253 621.784 616.677 621.784V621.048C617.552 621.048 618.395 621.016 619.205 620.952C620.016 620.888 620.859 620.792 621.733 620.664L621.381 624.344H621.509C621.979 622.915 622.555 621.912 623.237 621.336C623.92 620.76 624.656 620.472 625.445 620.472C626.341 620.472 626.939 620.696 627.237 621.144C627.536 621.571 627.685 621.987 627.685 622.392C627.685 622.861 627.547 623.245 627.269 623.544C626.992 623.843 626.619 623.992 626.149 623.992C625.701 623.992 625.36 623.885 625.125 623.672C624.891 623.459 624.773 623.213 624.773 622.936C624.773 622.723 624.795 622.52 624.837 622.328C624.901 622.136 624.933 621.987 624.933 621.88C624.933 621.667 624.784 621.56 624.485 621.56C624.187 621.56 623.867 621.699 623.525 621.976C623.205 622.253 622.928 622.637 622.693 623.128C622.501 623.533 622.32 623.981 622.149 624.472C621.979 624.963 621.84 625.496 621.733 626.072V631.128C621.733 632.088 621.797 632.781 621.925 633.208C622.053 633.613 622.277 633.88 622.597 634.008C622.939 634.115 623.419 634.211 624.037 634.296L624.549 634.36V635.096L620.613 635L616.677 635.096ZM629.209 635.096V634.36L629.721 634.296C630.339 634.211 630.809 634.115 631.129 634.008C631.47 633.88 631.705 633.613 631.833 633.208C631.961 632.781 632.025 632.088 632.025 631.128V624.376C632.025 623.267 631.79 622.563 631.321 622.264C630.873 621.944 630.243 621.784 629.433 621.784H629.209V621.048C630.083 621.048 630.926 621.027 631.737 620.984C632.547 620.92 633.39 620.813 634.265 620.664V631.128C634.265 632.088 634.329 632.781 634.457 633.208C634.585 633.613 634.809 633.88 635.129 634.008C635.47 634.115 635.95 634.211 636.569 634.296L637.081 634.36V635.096L633.145 635L629.209 635.096ZM632.761 616.92C632.206 616.92 631.769 616.728 631.449 616.344C631.129 615.96 630.969 615.501 630.969 614.968C630.969 614.413 631.129 613.955 631.449 613.592C631.769 613.208 632.206 613.016 632.761 613.016C633.379 613.016 633.827 613.208 634.105 613.592C634.403 613.955 634.553 614.413 634.553 614.968C634.553 615.501 634.403 615.96 634.105 616.344C633.827 616.728 633.379 616.92 632.761 616.92ZM645.022 635.352C643.636 635.352 642.537 635.011 641.726 634.328C640.937 633.624 640.542 632.589 640.542 631.224V625.016C640.542 624.056 640.478 623.373 640.35 622.968C640.222 622.541 639.988 622.264 639.646 622.136C639.326 622.008 638.857 621.912 638.238 621.848L637.726 621.784V621.048L641.662 621.144L642.782 621.112V631.096C642.782 632.141 643.049 632.941 643.582 633.496C644.116 634.051 644.841 634.328 645.758 634.328C646.548 634.328 647.241 634.157 647.838 633.816C648.457 633.453 648.98 632.995 649.406 632.44C649.854 631.885 650.206 631.32 650.462 630.744V625.016C650.462 624.056 650.398 623.373 650.27 622.968C650.142 622.541 649.908 622.264 649.566 622.136C649.246 622.008 648.777 621.912 648.158 621.848L647.646 621.784V621.048L651.582 621.144L652.702 621.112V631.448C652.702 632.259 652.798 632.867 652.99 633.272C653.204 633.656 653.502 633.912 653.886 634.04C654.292 634.168 654.782 634.232 655.358 634.232V634.968C654.484 634.968 653.684 634.979 652.958 635C652.233 635.021 651.401 635.117 650.462 635.288V632.344C650.249 632.685 650.025 632.984 649.79 633.24C649.236 633.859 648.564 634.371 647.774 634.776C646.985 635.16 646.068 635.352 645.022 635.352ZM656.584 635.096V634.36L657.096 634.296C657.714 634.211 658.184 634.115 658.504 634.008C658.845 633.88 659.08 633.613 659.208 633.208C659.336 632.781 659.4 632.088 659.4 631.128V624.376C659.4 623.608 659.282 623.043 659.048 622.68C658.834 622.296 658.514 622.051 658.088 621.944C657.661 621.837 657.16 621.784 656.584 621.784V621.048C657.458 621.048 658.301 621.027 659.112 620.984C659.922 620.92 660.765 620.813 661.64 620.664V623.16C662.109 622.435 662.76 621.805 663.592 621.272C664.445 620.739 665.426 620.472 666.536 620.472C667.666 620.472 668.605 620.717 669.352 621.208C670.12 621.677 670.632 622.424 670.888 623.448C671.336 622.68 671.997 621.997 672.872 621.4C673.746 620.781 674.781 620.472 675.976 620.472C677.362 620.472 678.461 620.835 679.272 621.56C680.104 622.285 680.52 623.437 680.52 625.016V631.128C680.52 632.067 680.573 632.749 680.68 633.176C680.808 633.581 681.032 633.848 681.352 633.976C681.693 634.104 682.173 634.211 682.792 634.296L683.304 634.36V635.096L679.4 635L675.784 635.096V634.36L676.296 634.296C676.829 634.232 677.234 634.136 677.512 634.008C677.81 633.88 678.013 633.613 678.12 633.208C678.226 632.781 678.28 632.088 678.28 631.128V624.472C678.28 623.533 678.024 622.797 677.512 622.264C677 621.709 676.274 621.432 675.336 621.432C674.568 621.432 673.896 621.603 673.319 621.944C672.744 622.285 672.264 622.712 671.88 623.224C671.517 623.736 671.25 624.237 671.08 624.728C671.08 624.813 671.08 624.909 671.08 625.016V631.128C671.08 632.088 671.133 632.781 671.24 633.208C671.346 633.613 671.538 633.88 671.816 634.008C672.114 634.115 672.53 634.211 673.064 634.296L673.576 634.36V635.096L669.96 635L666.344 635.096V634.36L666.856 634.296C667.389 634.211 667.794 634.115 668.072 634.008C668.37 633.88 668.573 633.613 668.68 633.208C668.786 632.781 668.84 632.088 668.84 631.128V624.472C668.84 623.533 668.584 622.797 668.072 622.264C667.56 621.709 666.834 621.432 665.896 621.432C665.149 621.432 664.488 621.603 663.911 621.944C663.336 622.285 662.856 622.712 662.472 623.224C662.088 623.736 661.81 624.237 661.64 624.728V631.128C661.64 632.088 661.693 632.781 661.8 633.208C661.906 633.613 662.098 633.88 662.376 634.008C662.674 634.115 663.09 634.211 663.624 634.296L664.135 634.36V635.096L660.52 635L656.584 635.096Z" fill="#E5F4FF"/>
<path d="M931.344 639.383V650.695H929.531L924.172 642.961H924.078V650.695H922.047V639.383H923.891L929.219 647.117H929.328V639.383H931.344ZM932.953 648.305C932.953 646.398 934.531 645.836 936.109 645.742C936.695 645.703 937.914 645.633 938.281 645.617V644.945C938.281 644.102 937.734 643.617 936.75 643.617C935.859 643.617 935.312 644.023 935.156 644.633H933.234C933.375 643.195 934.672 642.102 936.797 642.102C938.406 642.102 940.266 642.758 940.266 645.023V650.695H938.359V649.523H938.297C937.922 650.242 937.125 650.867 935.797 650.867C934.172 650.867 932.953 649.977 932.953 648.305ZM934.875 648.289C934.875 649.023 935.469 649.398 936.312 649.398C937.516 649.398 938.297 648.602 938.297 647.648V646.945L936.422 647.07C935.469 647.148 934.875 647.539 934.875 648.289ZM947.812 653.883V649.352H947.734C947.422 649.977 946.766 650.852 945.297 650.852C943.297 650.852 941.797 649.258 941.797 646.461C941.797 643.633 943.344 642.102 945.312 642.102C946.812 642.102 947.438 642.992 947.734 643.602H947.844V642.211H949.797V653.883H947.812ZM945.844 649.211C947.125 649.211 947.859 648.102 947.859 646.445C947.859 644.805 947.141 643.727 945.844 643.727C944.516 643.727 943.828 644.867 943.828 646.445C943.828 648.055 944.531 649.211 945.844 649.211ZM957.141 647.133V642.211H959.125V650.695H957.203V649.195H957.109C956.719 650.133 955.828 650.805 954.562 650.805C952.891 650.805 951.734 649.648 951.719 647.617V642.211H953.719V647.305C953.719 648.383 954.359 649.07 955.328 649.07C956.203 649.07 957.141 648.43 957.141 647.133ZM960.641 648.305C960.641 646.398 962.219 645.836 963.797 645.742C964.383 645.703 965.602 645.633 965.969 645.617V644.945C965.969 644.102 965.422 643.617 964.438 643.617C963.547 643.617 963 644.023 962.844 644.633H960.922C961.062 643.195 962.359 642.102 964.484 642.102C966.094 642.102 967.953 642.758 967.953 645.023V650.695H966.047V649.523H965.984C965.609 650.242 964.812 650.867 963.484 650.867C961.859 650.867 960.641 649.977 960.641 648.305ZM962.562 648.289C962.562 649.023 963.156 649.398 964 649.398C965.203 649.398 965.984 648.602 965.984 647.648V646.945L964.109 647.07C963.156 647.148 962.562 647.539 962.562 648.289ZM969.828 650.695V642.211H971.766V643.617H971.859C972.156 642.648 972.984 642.086 973.953 642.086C974.172 642.086 974.484 642.102 974.672 642.133V643.977C974.5 643.914 974.078 643.852 973.75 643.852C972.641 643.852 971.828 644.617 971.828 645.695V650.695H969.828ZM975.859 650.695V642.211H977.859V650.695H975.859ZM976.875 641.008C976.25 641.008 975.719 640.523 975.719 639.914C975.719 639.32 976.25 638.836 976.875 638.836C977.516 638.836 978.031 639.32 978.031 639.914C978.031 640.523 977.516 641.008 976.875 641.008ZM985.188 647.133V642.211H987.172V650.695H985.25V649.195H985.156C984.766 650.133 983.875 650.805 982.609 650.805C980.938 650.805 979.781 649.648 979.766 647.617V642.211H981.766V647.305C981.766 648.383 982.406 649.07 983.375 649.07C984.25 649.07 985.188 648.43 985.188 647.133ZM989.078 650.695V642.211H990.984V643.648H991.094C991.438 642.68 992.297 642.102 993.422 642.102C994.578 642.102 995.391 642.68 995.719 643.648H995.812C996.188 642.711 997.125 642.102 998.359 642.102C999.906 642.102 1001 643.102 1001 644.992V650.695H999.016V645.305C999.016 644.242 998.375 643.773 997.562 643.773C996.578 643.773 996.016 644.445 996.016 645.398V650.695H994.078V645.227C994.078 644.352 993.484 643.773 992.641 643.773C991.781 643.773 991.078 644.477 991.078 645.539V650.695H989.078Z" fill="#84CFF4"/>
<circle cx="814" cy="435" r="7" fill="#E5F4FF"/>
<circle cx="415" cy="435" r="7" fill="#E5F4FF"/>
<rect x="408" y="642" width="14" height="14" fill="#E5F4FF"/>
<rect x="807" y="642" width="14" height="14" fill="#E5F4FF"/>
<path d="M734.125 328.625V332.625C734.125 336.844 734.125 341.906 732.688 348.75H740.688V352.062H690.438V348.75H728.75C729.344 345.781 729.688 343.188 729.938 340.875L696.188 342.375L695.625 339.125L730.125 337.938C730.188 336.031 730.188 334.281 730.188 332.625V331.938H696.938V328.625H734.125ZM734.562 358V370.188H700.562V376.875H736.5V380.062H696.625V367.062H730.625V361.125H696.5V358H734.562ZM791.062 325.75V359.375H787.125V325.75H791.062ZM791.062 362.562V380.875H787.125V365.938H754.25V362.562H791.062ZM753 352.625C762.75 352.625 770.312 352.312 779.562 350.875L780.062 354.188C770.5 355.688 762.938 356 753 356H748.625V340.562H769.688V332.438H748.5V329.125H773.562V343.75H752.438V352.625H753Z" fill="#E5F4FF"/>
<path d="M602 342.158L636 379L670 342.158" stroke="#E5F4FF" strokewidth="4" strokelinecap="round" strokelinejoin="round"/>
<path d="M602 327L636 363.842L670 327" stroke="#E5F4FF" strokewidth="4" strokelinecap="round" strokelinejoin="round"/>
<g filter="url(#filter2_f_85_211)">
<path d="M642 470.164C642.954 459.422 651.973 451 662.958 451C674.579 451 684 460.425 684 472.052C684 476.489 682.628 480.606 680.285 484" stroke="#E5F4FF" strokeopacity="0.27" strokewidth="3"/>
</g>
<g filter="url(#filter3_f_85_211)">
<path d="M754.314 550.5C759.601 536.197 773.36 526 789.5 526C810.211 526 827 542.789 827 563.5C827 584.211 810.211 601 789.5 601C778.367 601 768.368 596.149 761.5 588.446" stroke="#E5F4FF" strokeopacity="0.27" strokewidth="3"/>
</g>
</g>
<defs>
<filter id="filter0_dg_85_211" x="378" y="403.15" width="689.092" height="284.39" filterUnits="userSpaceOnUse" color-interpolation-filters="sRGB">
<feFlood flood-opacity="0" result="BackgroundImageFix"/>
<feColorMatrix in="SourceAlpha" type="matrix" values="0 0 0 0 0 0 0 0 0 0 0 0 0 0 0 0 0 0 127 0" result="hardAlpha"/>
<feOffset dy="4"/>
<feGaussianBlur stdDeviation="2"/>
<feColorMatrix type="matrix" result="shdwTex" values="0 0 0 0 0 0 0 0 0 0 0 0 0 0 0 0 0 0 0.25 0"/><feTurbulence type="fractalNoise" baseFrequency="0.25 0.25" numOctaves="3" seed="8462" />
<feDisplacementMap in="shdwTex" scale="2" xChannelSelector="R" yChannelSelector="G" result="displacedImage" width="100%" height="100%" />
<feBlend mode="normal" in2="BackgroundImageFix" result="effect1_dropShadow_85_211"/>
<feBlend mode="normal" in="SourceGraphic" in2="BackgroundImageFix" result="shape"/>
<feTurbulence type="fractalNoise" baseFrequency="0.25 0.25" numOctaves="3" seed="8462" result="displacementX" />
<feTurbulence type="fractalNoise" baseFrequency="0.25 0.25" numOctaves="3" seed="8463" result="displacementY" />
<feColorMatrix in="displacementX" type="matrix" values="0 0 0 1 0  0 0 0 0 0  0 0 0 0 0  0 0 0 0 1" result="displacementXRed" />
<feColorMatrix in="displacementY" type="matrix" values="0 0 0 0 0  0 0 0 1 0  0 0 0 0 0  0 0 0 0 1" />
<feComposite in="displacementXRed" operator="arithmetic" k1="0" k2="1" k3="1" k4="0"/>
<feDisplacementMap in="shape" scale="2" xChannelSelector="R" yChannelSelector="G" width="100%" height="100%" />
<feColorMatrix type="matrix" values="0 0 0 0 0  0 0 0 0 0  0 0 0 0 0  0 0 0 1 0" />
<feComponentTransfer result="sourceDisplacedAlpha">
<feFuncA type="gamma" exponent="0.2" />
</feComponentTransfer>
<feColorMatrix in="shape" type="matrix" values="0 0 0 0 0  0 0 0 0 0  0 0 0 0 0  0 0 0 1 0" />
<feComponentTransfer result="inputSourceAlpha">
<feFuncA type="gamma" exponent="0.2" />
</feComponentTransfer>
<feComposite in="sourceDisplacedAlpha" operator="arithmetic" k1="1" k2="0" k3="0" k4="0" result="displacementAlphasMultiplied"/>
<feComposite in="displacementAlphasMultiplied"  operator="arithmetic" k1="0" k2="0" k3="-0.5" k4="0.5" result="centeringAdjustment"/>
<feComposite in="displacementX" in2="displacementAlphasMultiplied" operator="arithmetic" k1="1" k2="0" k3="0" k4="0" />
<feComposite in="centeringAdjustment" operator="arithmetic" k1="0" k2="1" k3="1" k4="0" />
<feColorMatrix  type="matrix" values="0 0 0 1 0  0 0 0 0 0  0 0 0 0 0  0 0 0 0 1" result="displacementXFinal" />
<feComposite in="displacementY" in2="displacementAlphasMultiplied" operator="arithmetic" k1="1" k2="0" k3="0" k4="0" />
<feComposite in="centeringAdjustment" operator="arithmetic" k1="0" k2="1" k3="1" k4="0" />
<feColorMatrix  type="matrix" values="0 0 0 0 0  0 0 0 1 0  0 0 0 0 0  0 0 0 0 1" result="displacementYFinal" />
<feComposite in="displacementXFinal" in2="displacementYFinal" operator="arithmetic" k1="0" k2="1" k3="1" k4="0" />
<feComposite in2="displacementAlphasMultiplied" operator="in" result="displacementMap" />
<feFlood flood-color="rgb(127, 127, 127)" flood-opacity="1"/>
<feComposite in2="displacementAlphasMultiplied" operator="out" />
<feComposite in2="displacementMap" operator="over" result="displacementMapWithBg"/>
<feDisplacementMap in="shape" scale="2" xChannelSelector="R" yChannelSelector="G" width="100%" height="100%" result="displacedImage" />
<feColorMatrix in="shape" type="matrix" values="1 0 0 0 0  0 1 0 0 0  0 0 1 0 0  0 0 0 127 0" result="imageOpaque" />
<feDisplacementMap in="imageOpaque" in2="displacementMapWithBg" scale="2" xChannelSelector="R" yChannelSelector="G" width="100%" height="100%" result="displacedImageOpaque" />
<feColorMatrix in="displacedImage" type="matrix" values="0 0 0 1 0  0 0 0 0 0  0 0 0 0 0  0 0 0 127 0" result="displacedImageRed" />
<feColorMatrix in="shape" type="matrix" values="0 0 0 1 0  0 0 0 0 0  0 0 0 0 0  0 0 0 127 0" />
<feComposite in="displacedImageRed"  operator="atop" result="transparencyRedMap"/>
<feColorMatrix in="transparencyRedMap" type="matrix" values="0 0 0 0 0  0 0 0 0 0  0 0 0 0 0  1 0 0 0 0" result="transparencyAlphaMap" />
<feComposite in="displacedImageOpaque" in2="imageOpaque" operator="over" />
<feComposite in2="transparencyAlphaMap" operator="in" result="effect2_texture_85_211"/>
<feBlend mode="normal" in="effect2_texture_85_211" in2="effect1_dropShadow_85_211" result="effect2_texture_85_211"/>
</filter>
<filter id="filter1_dg_85_211" x="845.061" y="397.255" width="224.923" height="290.29" filterUnits="userSpaceOnUse" color-interpolation-filters="sRGB">
<feFlood flood-opacity="0" result="BackgroundImageFix"/>
<feColorMatrix in="SourceAlpha" type="matrix" values="0 0 0 0 0 0 0 0 0 0 0 0 0 0 0 0 0 0 127 0" result="hardAlpha"/>
<feOffset dy="4"/>
<feGaussianBlur stdDeviation="2"/>
<feComposite in2="hardAlpha" operator="out"/>
<feColorMatrix type="matrix" values="0 0 0 0 0 0 0 0 0 0 0 0 0 0 0 0 0 0 0.25 0"/>
<feBlend mode="normal" in2="BackgroundImageFix" result="effect1_dropShadow_85_211"/>
<feBlend mode="normal" in="SourceGraphic" in2="effect1_dropShadow_85_211" result="shape"/>
<feTurbulence type="fractalNoise" baseFrequency="2 2" numOctaves="3" seed="5662" />
<feDisplacementMap in="shape" scale="13.800000190734863" xChannelSelector="R" yChannelSelector="G" result="displacedImage" width="100%" height="100%" />
<feMerge result="effect2_texture_85_211">
<feMergeNode in="displacedImage"/>
</feMerge>
</filter>
<filter id="filter2_f_85_211" x="633.306" y="442.3" width="59.3941" height="49.7525" filterUnits="userSpaceOnUse" color-interpolation-filters="sRGB">
<feFlood flood-opacity="0" result="BackgroundImageFix"/>
<feBlend mode="normal" in="SourceGraphic" in2="BackgroundImageFix" result="shape"/>
<feGaussianBlur stdDeviation="3.6" result="effect1_foregroundBlur_85_211"/>
</filter>
<filter id="filter3_f_85_211" x="745.708" y="517.3" width="89.9918" height="92.4" filterUnits="userSpaceOnUse" color-interpolation-filters="sRGB">
<feFlood flood-opacity="0" result="BackgroundImageFix"/>
<feBlend mode="normal" in="SourceGraphic" in2="BackgroundImageFix" result="shape"/>
<feGaussianBlur stdDeviation="3.6" result="effect1_foregroundBlur_85_211"/>
</filter>
<clipPath id="clip0_85_211">
<rect width="1440" height="1024" fill="white"/>
</clipPath>
</defs>
  </svg>